<svg preserveAspectRatio="none" width="100%" height="100%" overflow="visible" style="display: block;" viewBox="0 0 15.9736 15.9736" fill="none" xmlns="http://www.w3.org/2000/svg">
<g id="Icon">
<path id="icon" d="M15.9736 8.83203L8.83203 15.9736L0 7.1416V6.51855L0.00488281 2.04297L0.0146484 1.83496C0.112942 0.875896 0.875962 0.113163 1.83496 0.0146484L2.04395 0.00390625L6.51855 0H7.1416L15.9736 8.83203ZM2.0459 1.50391C1.74745 1.50421 1.50526 1.74649 1.50488 2.04492L1.5 6.52051L8.83203 13.8525L13.8525 8.83203L6.52051 1.5L2.0459 1.50391ZM3.78418 3.70898C4.3698 3.12344 5.31965 3.12345 5.90527 3.70898C6.49089 4.2946 6.49084 5.24444 5.90527 5.83008C5.31964 6.41571 4.36982 6.41571 3.78418 5.83008C3.19862 5.24444 3.19857 4.29459 3.78418 3.70898Z" fill="var(--fill-0, #533AFD)"/>
</g>
</svg>
