<svg preserveAspectRatio="none" width="100%" height="100%" overflow="visible" style="display: block;" viewBox="0 0 15.749 13.6357" fill="none" xmlns="http://www.w3.org/2000/svg">
<g id="Icon">
<path id="icon" d="M9.90332 0.285156L9.76074 1.02148L7.46191 12.8994L7.31934 13.6357L5.84668 13.3506L5.98926 12.6143L8.28809 0.736328L8.43066 0L9.90332 0.285156ZM12.2568 3.05078L15.2744 6.30762L15.749 6.82031L15.2715 7.33008L11.6787 11.1621L11.166 11.709L10.0713 10.6826L10.585 10.1357L13.6982 6.81445L11.1562 4.07031L10.6465 3.52051L11.7471 2.50098L12.2568 3.05078ZM5.67773 2.95215L5.16504 3.49902L2.0498 6.82031L4.59277 9.56543L5.10254 10.1152L4.00195 11.1348L3.49316 10.585L0.475586 7.32812L0 6.81543L0.478516 6.30469L4.07031 2.47363L4.58301 1.92578L5.67773 2.95215Z" fill="var(--fill-0, #533AFD)"/>
</g>
</svg>
