<svg preserveAspectRatio="xMidYMid meet" overflow="visible" style="display: block;" viewBox="0 0 3.26392 3.46562" fill="none" xmlns="http://www.w3.org/2000/svg">
<path id="Vector" d="M1.63196 2.88802C1.78782 2.88802 1.92534 2.86051 2.0537 2.79633C2.18206 2.73215 2.28291 2.64964 2.37459 2.53962C2.46627 2.4296 2.53045 2.31041 2.57629 2.16372C2.62214 2.0262 2.64964 1.8795 2.64964 1.72364C2.64964 1.56778 2.62214 1.42109 2.57629 1.27439C2.53045 1.13687 2.46627 1.00851 2.37459 0.907662C2.28291 0.797642 2.18206 0.715126 2.0537 0.660116C1.92534 0.595938 1.78782 0.568433 1.63196 0.568433C1.4761 0.568433 1.33857 0.595938 1.21022 0.660116C1.09103 0.724294 0.98101 0.80681 0.898495 0.907662C0.806812 1.00851 0.742633 1.13687 0.696792 1.27439C0.65095 1.41192 0.623446 1.55861 0.623446 1.72364C0.623446 1.8795 0.65095 2.0262 0.696792 2.16372C0.742633 2.30124 0.806812 2.4296 0.898495 2.53962C0.990178 2.64964 1.09103 2.73215 1.21022 2.79633C1.33857 2.85134 1.4761 2.88802 1.63196 2.88802ZM1.63196 3.46562C1.40275 3.46562 1.19188 3.41978 0.990178 3.32809C0.797644 3.23641 0.623446 3.11722 0.476753 2.96136C0.33006 2.8055 0.21087 2.62213 0.128356 2.41126C0.045841 2.20039 0 1.98035 0 1.73281C0 1.49443 0.045841 1.26523 0.128356 1.05435C0.21087 0.843484 0.33006 0.660118 0.476753 0.504257C0.623446 0.348396 0.788476 0.229208 0.990178 0.137525C1.19188 0.0458415 1.40275 0 1.63196 0C1.86117 0 2.07204 0.0458415 2.27374 0.137525C2.46628 0.229208 2.64047 0.348396 2.78716 0.504257C2.93386 0.660118 3.05305 0.843484 3.13556 1.05435C3.21808 1.26523 3.26392 1.48526 3.26392 1.73281C3.26392 1.97118 3.21808 2.20039 3.13556 2.41126C3.05305 2.62213 2.93386 2.8055 2.78716 2.96136C2.64047 3.11722 2.46628 3.24558 2.27374 3.32809C2.07204 3.41978 1.86117 3.46562 1.63196 3.46562Z" fill="var(--fill-0, black)"/>
</svg>
