<svg preserveAspectRatio="xMidYMid meet" overflow="visible" style="display: block;" viewBox="0 0 28.0458 23.0583" fill="none" xmlns="http://www.w3.org/2000/svg">
<path id="Vector" d="M22.7741 21.353H28.0458L19.2259 0.339227L14.7976 2.48461L17.8782 9.80092L16.4479 13.2024L10.9286 0L6.45449 2.04453L10.0485 10.4794L10.0301 10.516C7.8114 15.8428 5.09758 17.3006 4.8317 17.4014C4.19908 17.6582 3.52063 17.8048 2.8055 17.8048C2.58546 17.8048 2.37459 17.7957 2.16372 17.7682L0 22.4073C0.715128 22.8199 1.52194 23.0583 2.37459 23.0583C3.45645 23.0583 4.44663 22.6824 5.27178 22.0589L5.26261 22.0773C5.26261 22.0773 7.30714 21.0413 9.49836 15.3661C9.49836 15.3569 10.3052 13.5508 10.7361 12.3955L10.7819 12.2672L14.6326 21.3621H19.8952L17.1814 14.9627L18.6208 11.5612L22.7741 21.353Z" fill="var(--fill-0, #A11D2B)"/>
</svg>
