<svg preserveAspectRatio="xMidYMid meet" overflow="visible" style="display: block;" viewBox="0 0 2.4571 3.29142" fill="none" xmlns="http://www.w3.org/2000/svg">
<path id="Vector" d="M1.18271 1.47609C1.3294 1.47609 1.44859 1.43025 1.53111 1.33857C1.61362 1.24689 1.65946 1.13687 1.65946 0.999345C1.65946 0.86182 1.61362 0.74263 1.53111 0.650947C1.43942 0.559264 1.3294 0.522592 1.19188 0.522592H0.568435V1.47609H1.18271ZM0 0H1.18271C1.37525 0 1.54944 0.0275049 1.68697 0.091683C1.82449 0.155861 1.93451 0.229205 2.01703 0.330057C2.09954 0.430908 2.16372 0.531759 2.20039 0.650947C2.23707 0.770135 2.2554 0.880155 2.2554 0.981007C2.2554 1.18271 2.20956 1.37524 2.12705 1.53111C2.04453 1.68697 1.90701 1.81532 1.73281 1.91617L2.4571 3.29142H1.78782L1.15521 1.99869H0.568435V3.29142H0V0Z" fill="var(--fill-0, black)"/>
</svg>
