<svg preserveAspectRatio="xMidYMid meet" overflow="visible" style="display: block;" viewBox="0 0 2.46627 3.29142" fill="none" xmlns="http://www.w3.org/2000/svg">
<path id="Vector" d="M1.20105 1.47609C1.34774 1.47609 1.46693 1.43025 1.54944 1.33857C1.63196 1.24689 1.6778 1.13687 1.6778 0.999345C1.6778 0.86182 1.63196 0.74263 1.54944 0.650947C1.45776 0.559264 1.34774 0.522592 1.21022 0.522592H0.586771V1.47609H1.20105ZM0.00916747 0H1.19188C1.38441 0 1.55861 0.0275049 1.69614 0.091683C1.83366 0.155861 1.94368 0.229205 2.02619 0.330057C2.10871 0.430908 2.17289 0.531759 2.20956 0.650947C2.24623 0.770135 2.26457 0.880155 2.26457 0.981007C2.26457 1.18271 2.21873 1.37524 2.13621 1.53111C2.0537 1.68697 1.91618 1.81532 1.74198 1.91617L2.46627 3.29142H1.79699L1.16437 1.99869H0.568435V3.29142H0V0H0.00916747Z" fill="var(--fill-0, black)"/>
</svg>
