<svg preserveAspectRatio="none" width="100%" height="100%" overflow="visible" style="display: block;" viewBox="0 0 200 30" fill="none" xmlns="http://www.w3.org/2000/svg">
<g id="Group 2147227048">
<g id="Vector">
<path fill-rule="evenodd" clip-rule="evenodd" d="M72.0929 15.5007C72.0929 10.3738 69.6097 6.32844 64.8636 6.32844C60.0974 6.32844 57.2137 10.3738 57.2137 15.4606C57.2137 21.4887 60.6181 24.5327 65.5044 24.5327C67.8875 24.5327 69.6898 23.992 71.0515 23.231V19.2256C69.6898 19.9065 68.1278 20.3271 66.1452 20.3271C64.2027 20.3271 62.4805 19.6462 62.2602 17.283H72.0528C72.0528 17.0227 72.0929 15.9813 72.0929 15.5007ZM62.2001 13.5981C62.2001 11.3351 63.5819 10.3939 64.8435 10.3939C66.0651 10.3939 67.3668 11.3351 67.3668 13.5981H62.2001Z" fill="white"/>
<path fill-rule="evenodd" clip-rule="evenodd" d="M49.4838 6.32844C47.5212 6.32844 46.2596 7.24967 45.5587 7.89052L45.2984 6.64887H40.8927V30L45.8991 28.9386L45.9192 23.271C46.6401 23.7917 47.7015 24.5327 49.4637 24.5327C53.0483 24.5327 56.3126 21.6489 56.3126 15.3004C56.2925 9.49266 52.9883 6.32844 49.4838 6.32844ZM48.2822 20.1268C47.1007 20.1268 46.3998 19.7063 45.9192 19.1856L45.8991 11.7557C46.4198 11.1749 47.1407 10.7744 48.2822 10.7744C50.1046 10.7744 51.3662 12.8171 51.3662 15.4406C51.3662 18.1242 50.1246 20.1268 48.2822 20.1268Z" fill="white"/>
<path fill-rule="evenodd" clip-rule="evenodd" d="M34.0038 5.14686L39.0303 4.06542V0L34.0038 1.06142V5.14686Z" fill="white"/>
<path d="M39.0303 6.66889H34.0038V24.1923H39.0303V6.66889Z" fill="white"/>
<path fill-rule="evenodd" clip-rule="evenodd" d="M28.6169 8.15087L28.2965 6.66889H23.9709V24.1923H28.9773V12.3164C30.1589 10.7744 32.1614 11.0547 32.7822 11.275V6.66889C32.1414 6.42857 29.7984 5.98798 28.6169 8.15087Z" fill="white"/>
<path fill-rule="evenodd" clip-rule="evenodd" d="M18.604 2.3231L13.7177 3.36449L13.6976 19.4059C13.6976 22.3698 15.9205 24.5527 18.8843 24.5527C20.5264 24.5527 21.728 24.2523 22.3888 23.8919V19.8264C21.748 20.0868 18.5839 21.008 18.5839 18.0441V10.9346H22.3888V6.66889H18.5839L18.604 2.3231Z" fill="white"/>
<path fill-rule="evenodd" clip-rule="evenodd" d="M5.06653 11.7557C5.06653 10.9746 5.70735 10.6742 6.76872 10.6742C8.29068 10.6742 10.2132 11.1348 11.7351 11.9559V7.24967C10.073 6.58878 8.43086 6.32844 6.76872 6.32844C2.70348 6.32844 0 8.45127 0 11.996C0 17.5234 7.60981 16.6422 7.60981 19.0254C7.60981 19.9466 6.80877 20.247 5.68733 20.247C4.02519 20.247 1.90245 19.5661 0.220284 18.6449V23.4112C2.08268 24.2123 3.96511 24.5527 5.68733 24.5527C9.85269 24.5527 12.7164 22.49 12.7164 18.9052C12.6964 12.9372 5.06653 13.9987 5.06653 11.7557Z" fill="white"/>
</g>
<path id="Vector_2" d="M185.564 20.2393L187.897 18.5389C188.831 20.5727 190.965 21.8063 193.232 21.8063C195.266 21.8063 197.066 20.9394 197.066 19.039C197.066 17.1386 195.399 16.8719 192.532 16.2718C189.665 15.6383 186.664 15.0048 186.664 11.4374C186.664 8.33679 189.364 6.16967 193.065 6.16967C196.199 6.16967 198.766 7.70332 199.8 9.77042L197.666 11.4708C196.766 9.73708 195.132 8.63685 192.932 8.63685C190.931 8.63685 189.598 9.63706 189.598 11.2041C189.598 12.8377 191.131 13.1378 193.565 13.6712C196.566 14.3714 200 14.9715 200 18.7723C200 22.1063 196.966 24.3068 193.232 24.3068C190.065 24.3068 186.897 22.9398 185.564 20.2393Z" fill="var(--fill-0, white)"/>
<path id="Vector_3" d="M169.344 23.94V6.50308H172.345V8.87023C173.345 7.4366 175.079 6.16967 177.546 6.16967C181.247 6.16967 183.347 8.73687 183.347 12.4376V23.94H180.347V13.2378C180.347 10.804 179.313 8.97025 176.712 8.97025C174.545 8.97025 172.345 10.6373 172.345 13.5379V23.94H169.344Z" fill="var(--fill-0, white)"/>
<path id="Vector_4" d="M166.544 15.3256C166.544 20.7267 163.209 24.3941 158.442 24.3941C153.674 24.3941 150.34 20.7267 150.34 15.3256C150.34 9.92446 153.674 6.25703 158.442 6.25703C163.209 6.25703 166.544 9.92446 166.544 15.3256ZM153.374 15.3256C153.374 19.2931 155.375 21.8269 158.442 21.8269C161.509 21.8269 163.51 19.2931 163.51 15.3256C163.51 11.3248 161.509 8.79089 158.442 8.79089C155.375 8.79089 153.374 11.3248 153.374 15.3256Z" fill="var(--fill-0, white)"/>
<path id="Vector_5" d="M144.321 3.46994V0.00255059H147.588V3.46994H144.321ZM147.455 6.5039V23.9409H144.454V6.5039H147.455Z" fill="var(--fill-0, white)"/>
<path id="Vector_6" d="M127.246 20.2393L129.579 18.5389C130.513 20.5727 132.647 21.8063 134.914 21.8063C136.948 21.8063 138.748 20.9394 138.748 19.039C138.748 17.1386 137.081 16.8719 134.214 16.2718C131.346 15.6383 128.346 15.0048 128.346 11.4374C128.346 8.33679 131.046 6.16967 134.747 6.16967C137.881 6.16967 140.448 7.70332 141.482 9.77042L139.348 11.4708C138.448 9.73708 136.814 8.63685 134.614 8.63685C132.613 8.63685 131.28 9.63706 131.28 11.2041C131.28 12.8377 132.813 13.1378 135.247 13.6712C138.248 14.3714 141.682 14.9715 141.682 18.7723C141.682 22.1063 138.648 24.3068 134.914 24.3068C131.746 24.3068 128.579 22.9398 127.246 20.2393Z" fill="var(--fill-0, white)"/>
<path id="Vector_7" d="M111.709 20.3266L114.043 18.6263C114.976 20.66 117.11 21.8936 119.377 21.8936C121.411 21.8936 123.211 21.0268 123.211 19.1264C123.211 17.226 121.544 16.9593 118.677 16.3591C115.81 15.7257 112.809 15.0922 112.809 11.5248C112.809 8.42415 115.51 6.25703 119.211 6.25703C122.345 6.25703 124.912 7.79068 125.945 9.85778L123.812 11.5581C122.911 9.82444 121.278 8.72421 119.077 8.72421C117.077 8.72421 115.743 9.72442 115.743 11.2914C115.743 12.9251 117.277 13.2251 119.711 13.7586C122.711 14.4587 126.145 15.0589 126.145 18.8596C126.145 22.1937 123.111 24.3941 119.377 24.3941C116.21 24.3941 113.043 23.0272 111.709 20.3266Z" fill="var(--fill-0, white)"/>
<path id="Vector_8" d="M102.991 24.3068C98.1563 24.3068 94.8223 20.606 94.8223 15.2382C94.8223 10.0371 98.123 6.16967 102.857 6.16967C107.725 6.16967 110.292 9.87044 110.292 14.7048V15.705H97.6895C97.8562 19.3724 99.9567 21.7062 102.991 21.7062C105.324 21.7062 106.991 20.4393 107.525 18.3722L110.159 19.3057C109.092 22.4064 106.458 24.3068 102.991 24.3068ZM102.824 8.73687C100.29 8.73687 98.3897 10.4372 97.8562 13.4045H107.258C107.192 10.9373 105.858 8.73687 102.824 8.73687Z" fill="var(--fill-0, white)"/>
<path id="Vector_9" d="M78.8133 20.2393L81.1471 18.5389C82.0807 20.5727 84.2144 21.8063 86.4816 21.8063C88.5153 21.8063 90.3157 20.9394 90.3157 19.039C90.3157 17.1386 88.6487 16.8719 85.7814 16.2718C82.9142 15.6383 79.9135 15.0048 79.9135 11.4374C79.9135 8.33679 82.6141 6.16967 86.3149 6.16967C89.4489 6.16967 92.0161 7.70332 93.0496 9.77042L90.9158 11.4708C90.0156 9.73708 88.382 8.63685 86.1815 8.63685C84.1811 8.63685 82.8475 9.63706 82.8475 11.2041C82.8475 12.8377 84.3811 13.1378 86.815 13.6712C89.8156 14.3714 93.2496 14.9715 93.2496 18.7723C93.2496 22.1063 90.2157 24.3068 86.4816 24.3068C83.3143 24.3068 80.1469 22.9398 78.8133 20.2393Z" fill="var(--fill-0, white)"/>
</g>
</svg>
