<svg preserveAspectRatio="xMidYMid meet" overflow="visible" style="display: block;" viewBox="0 0 9.61639 10.3813" fill="none" xmlns="http://www.w3.org/2000/svg">
<path id="Vector" d="M4.91546 10.3813C3.92061 10.3813 3.05623 10.1916 2.32249 9.81227C1.58875 9.42671 1.01668 8.84845 0.606279 8.07741C0.202152 7.30637 0 6.35183 0 5.21394C0 4.13197 0.211435 3.19925 0.6343 2.41576C1.05717 1.62605 1.64161 1.026 2.38781 0.615603C3.13401 0.205201 3.98275 0 4.9342 0C5.84826 0 6.65969 0.198987 7.36859 0.596944C8.0774 0.994909 8.62773 1.57319 9.01948 2.33181C9.41742 3.09043 9.61639 3.99828 9.61639 5.05537C9.61639 5.43468 9.61329 5.73627 9.60711 5.96008H2.17328V4.00139H7.80693L6.74366 4.36516C6.74366 3.85526 6.66906 3.42932 6.51977 3.08732C6.37675 2.73911 6.16532 2.47794 5.88556 2.30383C5.60571 2.12973 5.26682 2.04267 4.86888 2.04267C4.45229 2.04267 4.08537 2.14527 3.76822 2.35047C3.45735 2.54945 3.2148 2.84792 3.04076 3.24588C2.87282 3.64385 2.78885 4.12265 2.78885 4.68228V5.64302C2.78885 6.21509 2.87591 6.70009 3.05004 7.09803C3.22417 7.49597 3.47291 7.79756 3.79624 8.00281C4.11958 8.20178 4.50196 8.30122 4.94348 8.30122C5.42848 8.30122 5.8296 8.17685 6.14666 7.92821C6.46381 7.6732 6.66278 7.31565 6.74366 6.85549H9.56981C9.48274 7.57685 9.2371 8.20178 8.83297 8.73027C8.43495 9.25885 7.90336 9.66616 7.23795 9.9522C6.57262 10.2382 5.79849 10.3813 4.91546 10.3813Z" fill="var(--fill-0, black)"/>
</svg>
