<svg preserveAspectRatio="xMidYMid meet" overflow="visible" style="display: block;" viewBox="0 0 9.62567 13.6457" fill="none" xmlns="http://www.w3.org/2000/svg">
<path id="Vector" d="M5.65229 13.6457C5.11752 13.6457 4.6387 13.5525 4.21592 13.366C3.79925 13.1794 3.44489 12.8996 3.15258 12.5265C2.86035 12.1472 2.64273 11.6808 2.49972 11.1274L2.79813 11.2113V13.3753H0V3.53503H2.82615V5.73626L2.509 5.79223C2.65201 5.26368 2.86964 4.81286 3.16195 4.43977C3.46036 4.06047 3.82418 3.77132 4.25323 3.57233C4.68228 3.36714 5.16419 3.26453 5.69896 3.26453C6.50111 3.26453 7.19747 3.47285 7.78828 3.88946C8.379 4.30608 8.83289 4.90613 9.15004 5.68962C9.4671 6.46689 9.62567 7.39029 9.62567 8.45981C9.62567 9.52315 9.464 10.4465 9.14067 11.23C8.81733 12.0073 8.35407 12.6042 7.75088 13.0208C7.15397 13.4375 6.45444 13.6457 5.65229 13.6457ZM4.77554 11.4912C5.1984 11.4912 5.55276 11.3668 5.8388 11.1181C6.13111 10.8694 6.34873 10.518 6.49174 10.0641C6.64095 9.61021 6.71564 9.07544 6.71564 8.45981C6.71564 7.84422 6.64095 7.30945 6.49174 6.85552C6.34873 6.4016 6.13111 6.05028 5.8388 5.80155C5.55276 5.5466 5.1984 5.41913 4.77554 5.41913C4.35895 5.41913 4.0014 5.5466 3.7029 5.80155C3.41068 6.05028 3.18988 6.40471 3.04067 6.86486C2.89147 7.31878 2.81678 7.85043 2.81678 8.45981C2.81678 9.07544 2.89147 9.61021 3.04067 10.0641C3.18988 10.518 3.41068 10.8694 3.7029 11.1181C4.0014 11.3668 4.35895 11.4912 4.77554 11.4912ZM0 0H2.82615V3.53503H0V0Z" fill="var(--fill-0, black)"/>
</svg>
