<svg preserveAspectRatio="xMidYMid meet" overflow="visible" style="display: block;" viewBox="0 0 9.43917 10.3813" fill="none" xmlns="http://www.w3.org/2000/svg">
<path id="Vector" d="M3.2179 10.3813C2.60225 10.3813 2.04883 10.26 1.55764 10.0174C1.07263 9.77497 0.690162 9.42989 0.410403 8.9821C0.136742 8.52821 0 7.99971 0 7.39653C0 6.4762 0.270478 5.77357 0.811434 5.28855C1.35239 4.79731 2.1328 4.47708 3.15258 4.32785L4.85951 4.08534C5.20149 4.03559 5.47197 3.97341 5.67094 3.89879C5.86991 3.82417 6.01602 3.72468 6.10928 3.60032C6.20262 3.46974 6.2492 3.30495 6.2492 3.10597C6.2492 2.90077 6.19325 2.71423 6.08134 2.54634C5.97563 2.37224 5.81396 2.23543 5.59634 2.13594C5.3849 2.03023 5.1268 1.97738 4.82212 1.97738C4.33711 1.97738 3.94854 2.10485 3.65623 2.3598C3.36401 2.60852 3.20544 2.95052 3.1806 3.3858H0.261107C0.286033 2.72667 0.485005 2.14216 0.858107 1.63227C1.23739 1.11617 1.7628 0.715088 2.43439 0.429053C3.10591 0.143018 3.88322 0 4.76617 0C5.69269 0 6.47619 0.152352 7.11667 0.457038C7.75716 0.75551 8.23907 1.18456 8.56241 1.7442C8.89193 2.30383 9.05669 2.97228 9.05669 3.74955V7.85352C9.05669 8.29503 9.08781 8.70543 9.15004 9.08472C9.21836 9.45782 9.3148 9.69409 9.43917 9.79362V10.1108H6.50103C6.4327 9.84339 6.37984 9.54179 6.34254 9.206C6.30515 8.8702 6.28341 8.51575 6.27722 8.14273L6.73421 7.94686C6.61612 8.38828 6.39849 8.79559 6.08134 9.16869C5.77038 9.53552 5.36935 9.83092 4.87816 10.0547C4.39306 10.2724 3.83965 10.3813 3.2179 10.3813ZM4.26251 8.31059C4.66045 8.31059 5.01181 8.22352 5.31649 8.04939C5.62118 7.86907 5.85436 7.62034 6.01602 7.30328C6.18397 6.98613 6.26785 6.62549 6.26785 6.22128V4.93412L6.50103 5.0647C6.35182 5.26368 6.16531 5.41603 5.94142 5.52174C5.7238 5.62746 5.4284 5.71762 5.05529 5.79222L4.33711 5.93215C3.85838 6.0254 3.49766 6.16842 3.2552 6.3612C3.01893 6.55398 2.90075 6.82446 2.90075 7.17263C2.90075 7.5209 3.02821 7.79756 3.28313 8.00281C3.53814 8.20797 3.86457 8.31059 4.26251 8.31059Z" fill="var(--fill-0, black)"/>
</svg>
