<svg preserveAspectRatio="xMidYMid meet" overflow="visible" style="display: block;" viewBox="0 0 9.74694 10.3813" fill="none" xmlns="http://www.w3.org/2000/svg">
<path id="Vector" d="M4.87816 10.3813C3.90187 10.3813 3.04377 10.1698 2.30384 9.74695C1.57001 9.32417 1.00112 8.72099 0.596908 7.93749C0.198969 7.15398 0 6.23683 0 5.18595C0 4.13508 0.198969 3.22101 0.596908 2.44375C1.00112 1.66025 1.57001 1.05709 2.30384 0.634254C3.04377 0.211424 3.90187 0 4.87816 0C5.85435 0 6.70937 0.211424 7.4431 0.634254C8.17684 1.05709 8.74273 1.66025 9.14067 2.44375C9.54488 3.22101 9.74694 4.13508 9.74694 5.18595C9.74694 6.23683 9.54488 7.15398 9.14067 7.93749C8.74273 8.72099 8.17684 9.32417 7.4431 9.74695C6.70937 10.1698 5.85435 10.3813 4.87816 10.3813ZM4.87816 8.21734C5.28856 8.21734 5.63983 8.10534 5.93214 7.88153C6.22436 7.65145 6.44817 7.31256 6.60365 6.86485C6.75913 6.41096 6.83683 5.85127 6.83683 5.18595C6.83683 4.19727 6.66588 3.44797 6.3238 2.93808C5.98181 2.42197 5.4999 2.16392 4.87816 2.16392C4.46775 2.16392 4.1133 2.27896 3.8148 2.50903C3.52258 2.73288 3.29869 3.07178 3.14329 3.5257C2.98781 3.97341 2.91003 4.52683 2.91003 5.18595C2.91003 5.84508 2.98781 6.40159 3.14329 6.85549C3.29869 7.30947 3.52258 7.65145 3.8148 7.88153C4.1133 8.10534 4.46775 8.21734 4.87816 8.21734Z" fill="var(--fill-0, black)"/>
</svg>
