<svg preserveAspectRatio="xMidYMid meet" overflow="visible" style="display: block;" viewBox="0 0 64.9692 19.5452" fill="none" xmlns="http://www.w3.org/2000/svg">
<g id="Group 13743">
<path id="Fill 1" fill-rule="evenodd" clip-rule="evenodd" d="M40.3058 15.2855C36.5313 18.0666 31.0589 19.5452 26.3458 19.5452C19.741 19.5452 13.794 17.1083 9.29237 13.051C8.9403 12.7332 9.25502 12.2966 9.67987 12.5433C14.5354 15.3654 20.5411 17.0639 26.7423 17.0639C30.9256 17.0639 35.525 16.1977 39.7564 14.4051C40.3947 14.1354 40.9298 14.8259 40.3058 15.2855Z" fill="var(--fill-0, #EFA82E)"/>
<path id="Fill 4" fill-rule="evenodd" clip-rule="evenodd" d="M41.8767 13.4954C41.3931 12.8778 38.6853 13.2025 37.4675 13.3481C37.0995 13.3924 37.0426 13.0712 37.3751 12.8388C39.5352 11.3229 43.0749 11.7614 43.4874 12.2673C43.9017 12.7801 43.379 16.3227 41.354 18.0142C41.0428 18.2752 40.7459 18.1349 40.8846 17.7924C41.3397 16.6565 42.3603 14.1131 41.8767 13.4954Z" fill="var(--fill-0, #EFA82E)"/>
<path id="Fill 5" fill-rule="evenodd" clip-rule="evenodd" d="M37.5541 2.13495V0.663624C37.5559 0.438298 37.7247 0.289161 37.9274 0.289161H44.5377C44.7492 0.289161 44.9181 0.443603 44.9181 0.661856V1.92377C44.9163 2.13495 44.7384 2.41186 44.4203 2.85028L40.9977 7.73112C42.2673 7.70106 43.6131 7.89087 44.7669 8.5387C45.0266 8.6843 45.0976 8.90078 45.1172 9.11373V10.6845C45.1172 10.901 44.8807 11.1514 44.6318 11.0199C42.5962 9.95682 39.8972 9.83967 37.6483 11.0342C37.4171 11.1549 37.1771 10.9082 37.1771 10.6916V9.19891C37.1771 8.95943 37.1808 8.55108 37.4226 8.18737L41.3889 2.50602H37.9363C37.7247 2.50602 37.5559 2.35512 37.5541 2.13495Z" fill="var(--fill-0, #1B1A19)"/>
<path id="Fill 8" fill-rule="evenodd" clip-rule="evenodd" d="M59.0774 11.33H57.0737C56.8727 11.3176 56.7127 11.1578 56.7127 10.9608L56.7092 0.652384C56.727 0.464342 56.8942 0.316973 57.0968 0.316973H58.9619C59.136 0.325815 59.2819 0.444741 59.3191 0.604489V2.18059H59.3564C59.92 0.77131 60.7077 0.100489 62.0962 0.100489C62.9976 0.100489 63.8795 0.425289 64.4429 1.31451C64.9692 2.138 64.9692 3.52592 64.9692 4.52346V11.0052C64.9462 11.188 64.7826 11.33 64.5835 11.33H62.5673C62.3807 11.3176 62.2313 11.181 62.2101 11.0052V5.41091C62.2101 4.28384 62.3416 2.6367 60.9513 2.6367C60.4642 2.6367 60.0125 2.9615 59.7885 3.46034C59.5076 4.08857 59.4685 4.7168 59.4685 5.41091V10.959C59.4649 11.1649 59.2908 11.33 59.0774 11.33Z" fill="var(--fill-0, #1B1A19)"/>
<path id="Fill 6" fill-rule="evenodd" clip-rule="evenodd" d="M13.4444 11.33H11.4335C11.2416 11.3176 11.0887 11.1739 11.0745 10.991V0.687899C11.0745 0.482026 11.2487 0.316973 11.4638 0.316973H13.3359C13.5315 0.325815 13.6897 0.474952 13.7021 0.663142V2.00847H13.7395C14.2266 0.707499 15.1476 0.100489 16.385 0.100489C17.6437 0.100489 18.4313 0.707499 18.9949 2.00847C19.482 0.707499 20.5898 0.100489 21.772 0.100489C22.6164 0.100489 23.5374 0.44651 24.0993 1.22741C24.7376 2.09365 24.6077 3.35203 24.6077 4.45773L24.6059 10.959C24.6059 11.1649 24.4317 11.33 24.2184 11.33H22.2093C22.0066 11.3176 21.8485 11.1578 21.8485 10.9608V5.49786C21.8485 5.06474 21.8857 3.98026 21.7915 3.56851C21.6404 2.87455 21.1906 2.67929 20.6092 2.67929C20.1203 2.67929 19.6137 3.00409 19.4075 3.52592C19.2011 4.04598 19.2207 4.91207 19.2207 5.49786V10.959C19.2207 11.1649 19.0465 11.33 18.8331 11.33H16.8241C16.6215 11.3176 16.4632 11.1578 16.4632 10.9608L16.4614 5.49786C16.4614 4.34942 16.6482 2.65807 15.2223 2.65807C13.7768 2.65807 13.8337 4.30506 13.8337 5.49786L13.8319 10.959C13.8319 11.1649 13.6595 11.33 13.4444 11.33Z" fill="var(--fill-0, #1B1A19)"/>
<path id="Fill 7" fill-rule="evenodd" clip-rule="evenodd" d="M50.6272 2.20236C49.1443 2.20236 49.0502 4.21866 49.0502 5.47527C49.0502 6.73365 49.0323 9.42253 50.6075 9.42253C52.1667 9.42253 52.2414 7.25371 52.2414 5.93137C52.2414 5.06352 52.204 4.02339 51.941 3.1999C51.7151 2.48457 51.2653 2.20236 50.6272 2.20236ZM50.6075 0.0991211C53.5927 0.0991211 55.2069 2.65847 55.2069 5.91015C55.2069 9.05337 53.4237 11.5471 50.6075 11.5471C47.6794 11.5471 46.0846 8.98765 46.0846 5.80184C46.0846 2.59289 47.6989 0.0991211 50.6075 0.0991211Z" fill="var(--fill-0, #1B1A19)"/>
<path id="Fill 9" fill-rule="evenodd" clip-rule="evenodd" d="M34.3124 11.3042C34.1791 11.423 33.9871 11.432 33.8378 11.3503C33.1693 10.7965 33.0501 10.541 32.6857 10.0138C31.5816 11.1355 30.7994 11.4728 29.37 11.4728C27.6774 11.4728 26.36 10.4291 26.36 8.34371C26.36 6.7144 27.2435 5.60678 28.5041 5.06196C29.5957 4.58448 31.1194 4.49754 32.2856 4.368V4.10701C32.2856 3.62777 32.323 3.06335 32.0403 2.6516C31.7967 2.28067 31.3257 2.12992 30.9114 2.12992C30.1451 2.12992 29.4642 2.52206 29.2953 3.33495C29.2615 3.51606 29.1282 3.69526 28.9468 3.70411L26.9982 3.49293C26.8329 3.45564 26.6498 3.32434 26.6978 3.07411C27.1458 0.713558 29.2811 0 31.1941 0C32.1719 0 33.452 0.260842 34.2218 0.999305C35.2014 1.91152 35.1072 3.12907 35.1072 4.45495V7.58225C35.1072 8.52291 35.4984 8.93465 35.8664 9.44234C35.9944 9.62507 36.0227 9.84171 35.8592 9.97478C35.4485 10.319 34.7178 10.9527 34.3179 11.3095L34.3124 11.3042ZM32.2856 6.40905C32.2856 7.19173 32.3035 7.8431 31.9087 8.53882C31.5887 9.10324 31.0821 9.45118 30.5167 9.45118C29.7451 9.45118 29.2935 8.86554 29.2935 7.99577C29.2935 6.28659 30.8296 5.97594 32.2856 5.97594V6.40905Z" fill="var(--fill-0, #1B1A19)"/>
<path id="Fill 11" fill-rule="evenodd" clip-rule="evenodd" d="M7.95253 11.3042C7.81909 11.423 7.62718 11.432 7.47779 11.3503C6.80937 10.7965 6.69024 10.541 6.324 10.0138C5.22173 11.1355 4.43935 11.4728 3.00995 11.4728C1.31735 11.4728 0 10.4291 0 8.34371C0 6.7144 0.883647 5.60678 2.14417 5.06196C3.23581 4.58448 4.75939 4.49754 5.92572 4.368V4.10701C5.92572 3.62777 5.96307 3.06335 5.68038 2.6516C5.43681 2.28067 4.96561 2.12992 4.55139 2.12992C3.7851 2.12992 3.10236 2.52206 2.93526 3.33495C2.90145 3.51606 2.76815 3.69526 2.58688 3.70411L0.638306 3.49293C0.472972 3.45564 0.289775 3.32434 0.337751 3.07411C0.785775 0.713558 2.92109 0 4.83408 0C5.81191 0 7.09206 0.260842 7.86367 0.999305C8.8415 1.91152 8.74716 3.12907 8.74716 4.45495V7.58225C8.74716 8.52291 9.13836 8.93465 9.50637 9.44234C9.63436 9.62507 9.66285 9.84171 9.49929 9.97478C9.08861 10.319 8.3579 10.9527 7.95785 11.3095L7.95253 11.3042ZM5.92572 6.40905C5.92572 7.19173 5.94344 7.8431 5.54885 8.53882C5.22882 9.10324 4.72204 9.45118 4.15666 9.45118C3.38505 9.45118 2.93348 8.86554 2.93348 7.99577C2.93348 6.28659 4.47138 5.97594 5.92572 5.97594V6.40905Z" fill="var(--fill-0, #1B1A19)"/>
</g>
</svg>
