<svg preserveAspectRatio="xMidYMid meet" overflow="visible" style="display: block;" viewBox="0 0 95.2174 17.009" fill="none" xmlns="http://www.w3.org/2000/svg">
<path id="Vector" d="M19.2174 4.74859C15.7584 4.74859 13.0556 7.37441 13.0556 10.8896C13.0556 14.4048 15.6901 17.0082 19.2174 17.0082C22.7447 17.0082 25.4249 14.3599 25.4249 10.8671C25.4249 7.39688 22.7905 4.74859 19.2174 4.74859ZM19.2407 14.4748C17.2709 14.4748 15.8275 12.945 15.8275 10.8905C15.8275 8.81265 17.2476 7.28366 19.2174 7.28366C21.2105 7.28366 22.6531 8.83598 22.6531 10.8905C22.6531 12.945 21.2105 14.4748 19.2407 14.4748ZM26.1804 7.42022H27.8986V16.7808H30.6472V4.97678H26.1804V7.42022ZM6.13843 7.28279C7.58185 7.28279 8.72708 8.17305 9.16183 9.49719H12.0711C11.5439 6.66653 9.20764 4.74859 6.16176 4.74859C2.70274 4.74859 0 7.37441 0 10.8905C0 14.4065 2.63446 17.009 6.16176 17.009C9.13936 17.009 11.5214 15.0911 12.0487 12.2371H9.16183C8.74955 13.5612 7.60432 14.4748 6.1609 14.4748C4.16777 14.4748 2.77102 12.945 2.77102 10.8905C2.77189 8.81265 4.14616 7.28279 6.13843 7.28279ZM78.4045 9.74871L76.3889 9.45225C75.4269 9.31568 74.7398 8.99588 74.7398 8.24219C74.7398 7.42022 75.6335 7.00967 76.847 7.00967C78.1755 7.00967 79.0234 7.58012 79.2066 8.51618H81.8636C81.5654 6.14189 79.733 4.74946 76.9162 4.74946C74.0069 4.74946 72.0829 6.2335 72.0829 8.33381C72.0829 10.3425 73.3431 11.5076 75.885 11.8724L77.9006 12.1688C78.886 12.3054 79.4357 12.6943 79.4357 13.4247C79.4357 14.3607 78.4737 14.7488 77.1452 14.7488C75.5186 14.7488 74.6024 14.0867 74.465 13.0824H71.7622C72.0146 15.3884 73.8236 17.009 77.1219 17.009C80.1228 17.009 82.1151 15.6391 82.1151 13.2872C82.1151 11.1869 80.6725 10.091 78.4045 9.74871ZM29.2729 0.114091C28.2651 0.114091 27.5088 0.844444 27.5088 1.84879C27.5088 2.85313 28.2643 3.58349 29.2729 3.58349C30.2807 3.58349 31.037 2.85313 31.037 1.84879C31.037 0.844444 30.2807 0.114091 29.2729 0.114091ZM69.6092 9.01835C69.6092 6.46168 68.0517 4.74946 64.7534 4.74946C61.6384 4.74946 59.8976 6.32512 59.5536 8.74523H62.2797C62.4171 7.80917 63.1501 7.033 64.7076 7.033C66.1052 7.033 66.7924 7.64927 66.7924 8.40296C66.7924 9.38483 65.5322 9.63548 63.9747 9.79538C61.8674 10.0236 59.2563 10.7539 59.2563 13.4938C59.2563 15.6175 60.8372 16.9866 63.3567 16.9866C65.3265 16.9866 66.5633 16.1646 67.1822 14.8629C67.2738 16.0272 68.1442 16.7808 69.3585 16.7808H70.9619V14.3383H69.61V9.01835H69.6092ZM66.9064 11.9864C66.9064 13.5621 65.5322 14.7263 63.8597 14.7263C62.8286 14.7263 61.9582 14.2925 61.9582 13.3797C61.9582 12.2155 63.3558 11.8957 64.6385 11.7591C65.8753 11.645 66.5624 11.371 66.9064 10.8455V11.9864ZM52.3158 4.74859C50.7808 4.74859 49.4981 5.38819 48.5819 6.46082V0H45.8334V16.7808H48.5361V15.2285C49.4523 16.347 50.7583 17.009 52.3158 17.009C55.6141 17.009 58.1111 14.4065 58.1111 10.8905C58.1111 7.37441 55.5682 4.74859 52.3158 4.74859ZM51.9035 14.4748C49.9337 14.4748 48.4903 12.945 48.4903 10.8905C48.4903 8.83598 49.9562 7.28366 51.926 7.28366C53.9191 7.28366 55.3159 8.81351 55.3159 10.8905C55.3159 12.945 53.8733 14.4748 51.9035 14.4748ZM39.2593 4.74859C37.4728 4.74859 36.3042 5.47895 35.6171 6.50663V4.97678H32.891V16.78H35.6395V10.365C35.6395 8.56113 36.7848 7.28279 38.4797 7.28279C40.0605 7.28279 41.045 8.40123 41.045 10.0227V16.7808H43.7936V9.81785C43.7944 6.8489 42.2602 4.74859 39.2593 4.74859ZM95.2174 10.5024C95.2174 7.12376 92.7437 4.74946 89.4221 4.74946C85.8948 4.74946 83.3061 7.39775 83.3061 10.8905C83.3061 14.5664 86.078 17.009 89.4679 17.009C92.3314 17.009 94.576 15.3193 95.1482 12.9225H92.2847C91.8724 13.9727 90.8646 14.5664 89.5128 14.5664C87.7487 14.5664 86.4203 13.4705 86.123 11.5526H95.2165V10.5024H95.2174ZM86.2837 9.58881C86.7193 7.94486 87.9562 7.14623 89.3763 7.14623C90.9338 7.14623 92.1248 8.03648 92.3997 9.58881H86.2837Z" fill="var(--fill-0, #0052FF)"/>
</svg>
