<svg preserveAspectRatio="xMidYMid meet" overflow="visible" style="display: block;" viewBox="0 0 56.5023 21.0003" fill="none" xmlns="http://www.w3.org/2000/svg">
<g id="Group 48096653">
<path id="Vector" d="M50.9259 17.085C50.1508 17.085 49.4547 16.9347 48.8378 16.6342C48.2366 16.3336 47.7542 15.9301 47.3903 15.4239C47.0422 14.9019 46.8682 14.3007 46.8682 13.6205C46.8682 12.7346 47.153 12.0148 47.7225 11.4611C48.292 10.9075 49.1067 10.5278 50.1666 10.3221L52.943 9.75266C53.4966 9.64191 53.8763 9.46788 54.0819 9.23058C54.2876 8.99327 54.3904 8.64531 54.3904 8.18651L54.6751 10.9628L50.6886 11.8171C50.1508 11.9278 49.7316 12.1256 49.431 12.4103C49.1463 12.6951 49.0039 13.0905 49.0039 13.5968C49.0039 14.1188 49.2017 14.538 49.5971 14.8544C50.0084 15.1708 50.562 15.3291 51.2582 15.3291C51.8277 15.3291 52.3497 15.2025 52.8243 14.9494C53.3146 14.6962 53.6943 14.3482 53.9633 13.9053C54.2481 13.4465 54.3904 12.9244 54.3904 12.3391V8.18651C54.3904 7.61697 54.1848 7.17408 53.7734 6.85767C53.3779 6.52544 52.8322 6.35932 52.1361 6.35932C51.2502 6.35932 50.57 6.58081 50.0954 7.02379C49.6208 7.46667 49.344 8.09159 49.2649 8.89834L47.1767 8.61367C47.2558 7.77517 47.5089 7.05543 47.936 6.45424C48.3632 5.83733 48.9327 5.36272 49.6445 5.03048C50.3565 4.69834 51.2028 4.53223 52.1836 4.53223C53.5757 4.53223 54.6435 4.8881 55.3871 5.60002C56.1305 6.31186 56.5023 7.22945 56.5023 8.35262V16.729H54.4379V15.1867C54.2322 15.7087 53.813 16.1595 53.1803 16.5392C52.5633 16.903 51.8119 17.085 50.9259 17.085Z" fill="var(--fill-0, black)"/>
<path id="Vector_2" d="M30.0429 16.729V4.8881H32.1074V6.21694C32.2655 5.75823 32.6136 5.36272 33.1515 5.03048C33.6893 4.69834 34.3142 4.53223 35.026 4.53223C35.7221 4.53223 36.3628 4.68252 36.9481 4.98302C37.5335 5.28361 37.9131 5.7345 38.0871 6.33559C38.2928 5.78196 38.6725 5.3469 39.2261 5.03048C39.7957 4.69834 40.4284 4.53223 41.1245 4.53223C42.3268 4.53223 43.2443 4.88019 43.8771 5.57629C44.5098 6.27231 44.8263 7.28483 44.8263 8.61367V16.729H42.7144V8.89834C42.7144 8.10741 42.5404 7.51413 42.1923 7.11871C41.8601 6.70737 41.3697 6.50171 40.7211 6.50171C40.0093 6.50171 39.4555 6.75484 39.06 7.2611C38.6804 7.75144 38.4906 8.47128 38.4906 9.42042V16.729H36.3786V8.89834C36.3786 8.10741 36.2047 7.51413 35.8566 7.11871C35.5244 6.70737 35.0339 6.50171 34.3854 6.50171C33.6735 6.50171 33.1198 6.75484 32.7243 7.2611C32.3446 7.75144 32.1549 8.47128 32.1549 9.42042V16.729H30.0429Z" fill="var(--fill-0, black)"/>
<path id="Vector_3" d="M21.9678 21.0003C20.4966 21.0003 19.3022 20.6602 18.3846 19.9799C17.4671 19.2997 16.8817 18.3505 16.6287 17.1324L18.6931 16.6816C18.8671 17.4567 19.2389 18.0578 19.8084 18.485C20.3779 18.928 21.0976 19.1495 21.9678 19.1495C23.0118 19.1495 23.7949 18.8805 24.3169 18.3426C24.8548 17.8206 25.1237 17.0375 25.1237 15.9934V14.1188C24.8864 14.7041 24.4435 15.1788 23.7949 15.5425C23.1621 15.9064 22.4502 16.0883 21.6593 16.0883C20.6152 16.0883 19.6976 15.851 18.9067 15.3764C18.1156 14.8861 17.4987 14.2058 17.0558 13.3357C16.6129 12.4657 16.3914 11.4611 16.3914 10.3221C16.3914 9.16729 16.6129 8.15487 17.0558 7.28483C17.4987 6.41469 18.1077 5.74241 18.8829 5.26779C19.6739 4.77735 20.5994 4.53223 21.6593 4.53223C22.4502 4.53223 23.17 4.71417 23.8186 5.07795C24.4831 5.426 24.9339 5.86106 25.1712 6.38305V4.8881H27.2357V15.9934C27.2357 17.0375 27.03 17.9314 26.6187 18.6748C26.2073 19.4341 25.6062 20.0116 24.8152 20.4071C24.0401 20.8025 23.0909 21.0003 21.9678 21.0003ZM21.9203 14.2137C22.9327 14.2137 23.7395 13.8578 24.3407 13.1459C24.9576 12.4341 25.2661 11.4927 25.2661 10.3221C25.2661 9.13565 24.9576 8.18651 24.3407 7.47458C23.7237 6.76275 22.9169 6.40678 21.9203 6.40678C20.9078 6.40678 20.0931 6.76275 19.4761 7.47458C18.875 8.18651 18.5744 9.13565 18.5744 10.3221C18.5744 11.4927 18.8829 12.4341 19.4999 13.1459C20.1169 13.8578 20.9236 14.2137 21.9203 14.2137Z" fill="var(--fill-0, black)"/>
<path id="Vector_4" d="M12.1294 16.7291V4.8882H14.2413V16.7291H12.1294ZM12.1057 3.36951V0H14.265V3.36951H12.1057Z" fill="var(--fill-0, black)"/>
<path id="Vector_5" d="M0 16.7291V0H2.23052V16.7291H0ZM0.450887 9.65783V7.6408H9.53918V9.65783H0.450887ZM0.450887 2.04067V0H10.4171V2.04067H0.450887Z" fill="var(--fill-0, black)"/>
</g>
</svg>
