<svg preserveAspectRatio="xMidYMid meet" overflow="visible" style="display: block;" viewBox="0 0 59.1562 22.1821" fill="none" xmlns="http://www.w3.org/2000/svg">
<g id="Logotype">
<path id="path737" d="M29.5779 0C13.1604 0 0 4.921 0 11.0908C0 17.223 13.2688 22.1821 29.5779 22.1821C45.8873 22.1821 59.1562 17.2064 59.1562 11.0908C59.1562 4.97521 45.8873 0 29.5779 0Z" fill="var(--fill-0, #003478)"/>
<path id="path741" d="M41.2285 13.4405C41.2364 13.4913 41.3031 13.54 41.3676 13.563C41.3914 13.571 41.4031 13.5868 41.3782 13.6408C41.1941 14.0356 41.0247 14.2632 40.7938 14.6062C40.5814 14.9231 40.3422 15.1703 40.0526 15.4082C39.6157 15.7697 39.009 16.1632 38.5074 15.8987C38.2847 15.7831 38.1882 15.4712 38.1925 15.2188C38.2031 14.509 38.5189 13.7803 39.102 13.064C39.8129 12.1889 40.5988 11.735 41.1145 11.9831C41.6481 12.2376 41.4778 12.8554 41.2388 13.3403C41.2203 13.3779 41.2203 13.4096 41.2283 13.4403L41.2285 13.4405ZM46.9544 7.90948C46.9927 7.84175 46.9524 7.79228 46.8668 7.79228C46.4211 7.79228 45.8364 7.79329 45.372 7.79329C45.2614 7.79329 45.2042 7.8065 45.1521 7.90968C44.9807 8.23809 42.8918 11.3687 42.503 11.9767C42.4374 12.0693 42.3575 12.0563 42.3482 11.9502C42.3088 11.5891 41.9969 11.174 41.5056 10.9754C41.1312 10.8236 40.7652 10.796 40.3846 10.8466C39.6976 10.9389 39.0855 11.3013 38.5474 11.7101C37.7363 12.3267 37.0365 13.1259 36.1332 13.7163C35.64 14.0378 34.9647 14.3181 34.5128 13.8997C34.1039 13.5205 34.1501 12.6784 34.7758 12.0271C34.8417 11.9588 34.9208 12.0165 34.9083 12.0771C34.8493 12.3716 34.9216 12.6646 35.1454 12.8699C35.4184 13.1147 35.809 13.1423 36.1434 12.9789C36.538 12.7834 36.7698 12.4059 36.8374 11.9775C36.9419 11.3128 36.4303 10.7266 35.7901 10.6796C35.2701 10.6431 34.7714 10.824 34.2854 11.2251C34.0417 11.4272 33.9034 11.5765 33.6927 11.8762C33.6413 11.95 33.5625 11.9574 33.5648 11.8484C33.5887 10.9974 33.237 10.5187 32.5336 10.5031C31.9874 10.4898 31.4041 10.7863 30.9494 11.1488C30.4509 11.5491 30.0151 12.0797 29.5478 12.5782C29.4896 12.6395 29.439 12.6366 29.4226 12.5176C29.4094 11.9537 29.2668 11.4076 29.0059 11.0198C28.9136 10.8849 28.7192 10.8182 28.5559 10.9092C28.4805 10.9505 28.2182 11.0712 28.0272 11.2249C27.9325 11.303 27.8954 11.416 27.9375 11.5608C28.1894 12.4031 28.1341 13.3608 27.7923 14.1696C27.4784 14.9105 26.8686 15.5786 26.1518 15.8048C25.6796 15.9545 25.1887 15.8813 24.885 15.4626C24.4678 14.8848 24.6362 13.88 25.2581 13.0457C25.8069 12.311 26.6008 11.8444 27.3926 11.5439C27.4857 11.5079 27.505 11.4481 27.4786 11.369C27.4357 11.2388 27.3669 11.0615 27.3391 10.9806C27.2664 10.7872 27.0631 10.756 26.8148 10.783C26.2395 10.8499 25.7204 11.0471 25.2078 11.3216C23.8653 12.0404 23.1922 13.4318 22.8973 14.1761C22.7552 14.5337 22.6338 14.7567 22.4769 14.9545C22.2652 15.2205 21.9995 15.4627 21.5138 15.8893C21.4698 15.9285 21.437 16.0099 21.4741 16.0859C21.5235 16.1885 21.7762 16.5453 21.8475 16.5772C21.9266 16.6161 22.0184 16.5613 22.0552 16.5354C22.3951 16.3049 22.8018 15.9397 23.0008 15.692C23.0706 15.6071 23.1423 15.6428 23.1794 15.7716C23.3651 16.4342 23.8514 16.9753 24.5239 17.2016C25.7548 17.6167 27.0315 17.0159 27.9952 15.9699C28.6077 15.305 28.8287 14.8774 29.0635 14.5867C29.4614 14.0938 30.2461 12.9911 31.1809 12.2831C31.5237 12.0219 31.9293 11.8228 32.1333 11.955C32.2971 12.0611 32.35 12.3077 32.0873 12.7854C31.1342 14.5257 29.732 16.5704 29.4749 17.0663C29.4278 17.1522 29.4696 17.2199 29.559 17.2199C30.0577 17.2175 30.5521 17.2187 31.0048 17.2187C31.0802 17.2161 31.1138 17.1806 31.1516 17.1275C31.883 15.9826 32.5713 14.893 33.3091 13.7664C33.3503 13.7 33.3884 13.7505 33.39 13.7796C33.4059 14.041 33.4694 14.3985 33.6247 14.6333C33.9036 15.0672 34.2987 15.2537 34.7371 15.2566C35.0858 15.2619 35.2623 15.2076 35.6384 15.0671C35.9444 14.9536 36.19 14.8047 36.3786 14.6699C36.4886 14.5932 36.5079 14.7215 36.5053 14.7411C36.336 15.6499 36.545 16.7268 37.4483 17.1734C38.5293 17.7064 39.7169 16.9572 40.4002 16.2809C40.4671 16.2158 40.5388 16.2227 40.5457 16.3632C40.5616 16.6214 40.6769 16.9278 40.8905 17.1422C41.4632 17.7169 42.6187 17.4892 43.7784 16.5916C44.5229 16.0169 45.302 15.205 46.0057 14.3452C46.0321 14.3119 46.0512 14.2584 46.0004 14.2042C45.8932 14.092 45.7382 13.9637 45.6319 13.8649C45.5835 13.8236 45.5123 13.8355 45.4716 13.8663C44.7503 14.5523 44.101 15.3347 43.1625 15.9816C42.846 16.2026 42.3416 16.3808 42.115 16.074C42.0267 15.955 42.0367 15.7903 42.123 15.5742C42.3966 14.8919 46.7285 8.29653 46.9534 7.90754" fill="var(--fill-0, white)"/>
<path id="path745" d="M26.5732 8.70495C26.5917 8.80284 26.6298 8.82191 26.6743 8.81371C26.8949 8.76953 27.1364 8.58802 27.2794 8.37764C27.4095 8.18688 27.4706 7.91162 27.3413 7.80132C27.2259 7.70211 27.0381 7.73013 26.8989 7.85315C26.6216 8.09814 26.5374 8.44575 26.5731 8.70516L26.5732 8.70495ZM15.5322 17.1949C13.9169 17.2054 12.494 16.208 12.3307 14.48C12.2399 13.5224 12.5106 12.669 13.0524 11.966C13.5333 11.3395 14.3469 10.8191 15.0355 10.6919C15.2596 10.6509 15.5607 10.676 15.6852 10.8253C15.8804 11.0525 15.8243 11.3022 15.6291 11.4018C15.1037 11.67 14.4715 12.1293 14.1587 12.7563C13.9049 13.2682 13.8537 13.885 14.2412 14.4726C14.8899 15.4519 16.6979 15.4789 18.3791 13.917C18.7954 13.5348 19.168 13.1675 19.5467 12.7325C20.2872 11.8859 20.5335 11.5774 21.5177 10.2122C21.5283 10.1963 21.5336 10.1756 21.5283 10.1656C21.5203 10.1471 21.5071 10.1444 21.4778 10.1418C20.8207 10.1603 20.2479 10.3558 19.691 10.7719C19.5307 10.8889 19.2999 10.8725 19.1989 10.7185C19.0865 10.5444 19.1672 10.3178 19.3521 10.1898C20.2478 9.56684 21.2263 9.45386 22.2255 9.28523C22.2247 9.28523 22.2949 9.28786 22.352 9.21272C22.7622 8.68629 23.0719 8.21143 23.5092 7.67904C23.9498 7.13887 24.5189 6.64285 24.9537 6.27026C25.5607 5.74837 25.9499 5.57275 26.3455 5.3575C26.4497 5.303 26.3323 5.23792 26.3005 5.23792C24.0919 4.82282 21.7963 4.28567 19.6028 5.09768C18.0837 5.66457 17.418 6.86921 17.7382 7.67415C17.966 8.24514 18.717 8.33797 19.42 7.99392C20.004 7.70782 20.5443 7.24671 20.9274 6.65312C21.1417 6.32347 21.5933 6.56131 21.3493 7.13372C20.7074 8.64234 19.4812 9.83899 17.9876 9.88952C16.7164 9.93079 15.8963 8.99563 15.899 7.84193C15.9042 5.56639 18.4374 4.06744 21.0997 3.84335C24.3059 3.57839 27.3427 4.43243 30.5261 4.81856C32.9651 5.11392 35.3035 5.12007 37.7551 4.55689C38.0449 4.49392 38.2483 4.67885 38.2294 4.97156C38.2056 5.39469 37.8777 5.80219 37.0703 6.24256C36.152 6.74619 35.1914 6.89901 34.188 6.90721C31.7619 6.92838 29.502 5.98171 27.1634 5.47356C27.166 5.57595 27.193 5.69789 27.1073 5.76253C25.8119 6.71801 24.641 7.68831 23.8568 9.05112C23.8303 9.08261 23.8435 9.11251 23.8903 9.10934C24.5712 9.07309 25.1835 9.05562 25.8192 9.00482C25.9303 8.99424 25.9345 8.96778 25.9247 8.88682C25.8684 8.41708 26.0057 7.88142 26.4189 7.51296C26.8418 7.13378 27.3713 7.09067 27.7224 7.36375C28.1214 7.67472 28.0861 8.23398 27.8678 8.6534C27.6456 9.07896 27.2786 9.30657 26.9263 9.41708C26.9263 9.41708 26.8523 9.43296 26.8634 9.50016C26.8766 9.60757 27.3572 9.87353 27.3982 9.94438C27.4379 10.0118 27.4168 10.1164 27.3445 10.1965C27.2937 10.2547 27.2141 10.3092 27.1122 10.3074C27.03 10.3057 26.98 10.2772 26.8747 10.2204C26.6593 10.1037 26.3902 9.91185 26.2106 9.6857C26.1495 9.60924 26.1183 9.60767 25.9656 9.61614C25.2778 9.65582 24.2052 9.75954 23.4785 9.85028C23.3023 9.87145 23.2764 9.90503 23.2401 9.96614C22.0815 11.8767 20.8444 13.937 19.4862 15.3165C18.0293 16.7955 16.8183 17.1849 15.5328 17.195" fill="var(--fill-0, white)"/>
<path id="path749" d="M29.5772 1.81394C14.4736 1.81394 2.23097 5.98757 2.23097 11.0947C2.23097 16.2022 14.4736 20.3762 29.5772 20.3762C44.6807 20.3762 56.9225 16.2022 56.9225 11.0947C56.9225 5.98757 44.6807 1.81394 29.5772 1.81394ZM29.5772 21.2173C13.9238 21.2173 1.2344 16.6853 1.2344 11.0947C1.2344 5.50326 13.9238 0.97207 29.5772 0.97207C45.2293 0.97207 57.9179 5.50326 57.9179 11.0947C57.9179 16.6853 45.2293 21.2173 29.5772 21.2173" fill="var(--fill-0, white)"/>
</g>
</svg>
