<svg preserveAspectRatio="xMidYMid meet" overflow="visible" style="display: block;" viewBox="0 0 71.3049 23.4726" fill="none" xmlns="http://www.w3.org/2000/svg">
<g id="User Logos/Full Color/Google">
<path id="Shape" d="M55.372 6.84166V17.3718C55.372 21.7034 52.8175 23.4726 49.7975 23.4726C46.9548 23.4726 45.2438 21.5712 44.5986 20.0163L46.8411 19.0828C47.2404 20.0374 48.2188 21.164 49.7949 21.164C51.728 21.164 52.9259 19.9713 52.9259 17.7262V16.8826H52.836C52.2595 17.594 51.1489 18.2154 49.7473 18.2154C46.8146 18.2154 44.1279 15.6609 44.1279 12.3738C44.1279 9.06299 46.8146 6.4873 49.7473 6.4873C51.1462 6.4873 52.2569 7.10875 52.836 7.79895H52.9259V6.8443H55.372V6.84166ZM53.1084 12.3738C53.1084 10.3085 51.7306 8.79855 49.9774 8.79855C48.2003 8.79855 46.7115 10.3085 46.7115 12.3738C46.7115 14.418 48.2003 15.9068 49.9774 15.9068C51.7306 15.9068 53.1084 14.418 53.1084 12.3738Z" fill="var(--fill-0, #4285F4)"/>
<path id="Shape_2" d="M43.2076 12.3527C43.2076 15.7296 40.5658 18.2181 37.3237 18.2181C34.0816 18.2181 31.4398 15.7296 31.4398 12.3527C31.4398 8.95457 34.0816 6.4873 37.3237 6.4873C40.5658 6.4873 43.2076 8.95193 43.2076 12.3527ZM40.6319 12.3527C40.6319 10.2424 39.1008 8.79855 37.3237 8.79855C35.5467 8.79855 34.0155 10.2424 34.0155 12.3527C34.0155 14.4418 35.5467 15.9068 37.3237 15.9068C39.1008 15.9068 40.6319 14.4391 40.6319 12.3527Z" fill="var(--fill-0, #FBBC05)"/>
<path id="Shape_3" d="M30.5143 12.3527C30.5143 15.7296 27.8725 18.2181 24.6304 18.2181C21.3883 18.2181 18.7465 15.7296 18.7465 12.3527C18.7465 8.95193 21.3883 6.4873 24.6304 6.4873C27.8725 6.4873 30.5143 8.95193 30.5143 12.3527ZM27.9386 12.3527C27.9386 10.2424 26.4075 8.79855 24.6304 8.79855C22.8534 8.79855 21.3222 10.2424 21.3222 12.3527C21.3222 14.4418 22.8534 15.9068 24.6304 15.9068C26.4075 15.9068 27.9386 14.4391 27.9386 12.3527Z" fill="var(--fill-0, #EA4335)"/>
<path id="Shape_4" d="M69.1946 14.2824L71.1938 15.6152C70.5485 16.5698 68.9936 18.2146 66.3069 18.2146C62.9749 18.2146 60.4864 15.639 60.4864 12.3493C60.4864 8.86124 62.996 6.48389 66.0186 6.48389C69.0624 6.48389 70.5512 8.9062 71.0378 10.2152L71.3049 10.8816L63.4641 14.129C64.0644 15.3058 64.9979 15.906 66.3069 15.906C67.6185 15.906 68.5282 15.2608 69.1946 14.2824ZM63.041 12.1721L68.2823 9.99571C67.994 9.2632 67.1266 8.75282 66.1059 8.75282C64.7969 8.75282 62.9749 9.90844 63.041 12.1721Z" fill="var(--fill-0, #EA4335)"/>
<path id="Path" d="M59.4048 0.668555V17.8574H56.8926V0.668555H59.4048Z" fill="var(--fill-0, #34A853)"/>
<path id="Path_2" d="M9.23704 10.8264V8.33793H17.6226C17.7046 8.77162 17.7469 9.28464 17.7469 9.83998C17.7469 11.707 17.2365 14.0156 15.5916 15.6604C13.9918 17.3264 11.9476 18.2149 9.23969 18.2149C4.22053 18.2149 0 14.1266 0 9.10747C0 4.08831 4.22053 0 9.23969 0C12.0164 0 13.9944 1.08951 15.4806 2.50958L13.7247 4.26549C12.659 3.26589 11.2151 2.48842 9.23704 2.48842C5.57184 2.48842 2.70527 5.44227 2.70527 9.10747C2.70527 12.7727 5.57184 15.7265 9.23704 15.7265C11.6144 15.7265 12.9684 14.7719 13.8357 13.9045C14.5392 13.2011 15.0019 12.1962 15.1844 10.8237L9.23704 10.8264Z" fill="var(--fill-0, #4285F4)"/>
</g>
</svg>
