<svg preserveAspectRatio="xMidYMid meet" overflow="visible" style="display: block;" viewBox="0 0 101.541 23.264" fill="none" xmlns="http://www.w3.org/2000/svg">
<g id="Lightspeed">
<path id="Path" d="M7.79932 0L8.8714 1.86541C9.08581 2.25135 9.08581 2.72306 8.8714 3.10901L2.48185 14.1942L5.50509 19.4259C5.9768 20.2407 6.8559 20.7553 7.79932 20.7553C8.74275 20.7553 9.62185 20.2407 10.0936 19.4259L13.1168 14.1942L12.3235 12.7791L8.89284 18.7184C8.67842 19.1043 8.24959 19.3402 7.82077 19.3402C7.3705 19.3402 6.96311 19.1043 6.74869 18.7184L4.1114 14.1942L10.0507 3.90234L11.1227 5.76775C11.3372 6.15369 11.3372 6.62541 11.1227 7.01135L6.98455 14.1942L7.79932 15.6094L12.302 7.80468L15.2609 12.9292C15.7112 13.7225 15.7112 14.6874 15.2609 15.4807L12.2591 20.691C11.8089 21.4843 10.3723 23.264 7.79932 23.264C5.22635 23.264 3.81122 21.4843 3.3395 20.691L0.337703 15.4807C-0.112568 14.6874 -0.112568 13.7225 0.337703 12.9292L7.79932 0Z" fill="var(--fill-0, #ED5153)"/>
<path id="Combined Shape" d="M33.1861 9.09087C35.5661 9.09087 37.5172 10.7633 37.5172 13.4006C37.5172 14.4727 37.1098 15.9521 35.7161 16.5954C37.1313 17.3029 37.4743 18.3321 37.4743 19.4256C37.4743 21.7842 35.6733 23.2422 33.2075 23.2422C30.7203 23.2422 28.8763 21.7199 28.8763 19.4256H30.9776C30.9776 20.5406 31.9853 21.2696 33.2075 21.2696C34.4297 21.2696 35.3731 20.6049 35.3731 19.4256C35.3731 18.2464 34.2581 17.7103 33.2075 17.7103C30.5488 17.7103 28.8763 16.0808 28.8763 13.422C28.8763 10.7633 30.8061 9.09087 33.1861 9.09087ZM67.7711 9.09087C70.387 9.09087 72.1237 11.042 72.1237 13.5507C72.1237 16.0165 70.5371 18.0534 67.814 18.0534C66.9134 18.0534 65.6055 17.7532 65.0052 16.8312V21.3339L62.9039 21.5698V9.28384H64.9408L65.0052 10.4417C65.6698 9.49826 66.8062 9.09087 67.7711 9.09087ZM58.0581 9.09087C59.4089 9.09087 60.4167 9.34817 61.403 10.2058L60.2237 11.5781C59.6234 11.0206 58.9158 10.8276 58.101 10.8276C57.0933 10.8276 56.5358 11.1278 56.5358 11.6638C56.5358 12.4143 57.4149 12.5429 57.9938 12.5858C58.9801 12.6501 59.9879 12.7145 60.8455 13.2505C61.5531 13.6793 61.8104 14.4727 61.7675 15.266C61.7675 16.6811 60.6525 17.6246 59.3446 17.9247C57.6079 18.3107 55.6996 17.9462 54.3273 16.8098C54.3273 16.8098 54.263 16.7455 54.1987 16.7026L55.2707 15.3518C55.7639 15.6734 56.2142 15.9307 56.7716 16.0808C57.3077 16.2094 57.8437 16.2523 58.3798 16.2309C58.8729 16.2094 59.5805 16.0379 59.6877 15.459C59.8592 14.6228 58.8729 14.4727 58.2725 14.4083C57.3934 14.3011 56.3643 14.2368 55.5709 13.7437C54.8634 13.3148 54.4345 12.5644 54.4345 11.7496C54.4345 9.777 56.4929 9.09087 58.0581 9.09087ZM51.4327 6.94673V9.28384H53.2981L53.1052 11.1064H51.4113V15.3089C51.4113 15.6948 51.4756 15.9521 51.6043 16.1237C51.7329 16.2952 51.9473 16.381 52.2046 16.381C52.4834 16.381 52.7835 16.2952 53.0623 16.1022L53.7913 17.453C53.5125 17.646 53.1909 17.7961 52.8264 17.9033C52.4619 18.0105 52.1188 18.0534 51.7543 18.0534C50.961 18.0534 50.3392 17.8175 49.9318 17.3673C49.5244 16.917 49.31 16.2523 49.31 15.3732V11.1278H47.7019V9.30528H49.31V7.18258L51.4327 6.94673ZM101.541 5.55303V17.839H99.5044L99.4401 16.7026C98.7754 17.646 97.639 18.0534 96.6742 18.0534C94.0583 18.0534 92.3216 16.1022 92.3216 13.615C92.3216 11.1278 93.8868 9.11231 96.6098 9.11231C97.5104 9.11231 98.8398 9.39105 99.4401 10.313V5.55303H101.541ZM77.3554 9.09087C79.9284 9.09087 82.0725 10.8491 81.8581 14.3226H74.8682C75.1041 15.3303 76.0261 16.2094 77.527 16.2094C78.2989 16.2094 79.328 15.8235 79.8212 15.3303L81.172 16.6597C80.2715 17.5817 78.792 18.032 77.5055 18.032C74.8468 18.032 72.917 16.2738 72.917 13.5507C72.917 10.9777 74.9111 9.09087 77.3554 9.09087ZM87.0898 9.09087C89.6628 9.09087 91.807 10.8491 91.5925 14.3226H84.6026C84.8385 15.3303 85.7605 16.2094 87.2614 16.2094C88.0333 16.2094 89.0625 15.8235 89.5556 15.3303L90.9064 16.6597C90.0059 17.5817 88.5264 18.032 87.2399 18.032C84.5812 18.032 82.6515 16.2738 82.6515 13.5507C82.6515 10.9777 84.6455 9.09087 87.0898 9.09087ZM23.8376 5.55303V17.839H21.7578V5.55303H23.8376ZM27.6756 9.30528V17.839H25.5743V9.30528H27.6756ZM40.9479 5.53159V10.3559C41.7197 9.39105 42.6417 9.09087 43.6066 9.09087C46.0295 9.09087 47.1016 10.7204 47.0801 13.2291V17.8175H44.9788V13.3792C44.9788 11.8354 44.1641 11.1707 43.0491 11.1707C41.8055 11.1707 40.9479 12.2213 40.9479 13.4864V17.8175H38.8466V5.53159H40.9479ZM96.8243 10.9134C95.3877 10.9134 94.4228 12.2213 94.4228 13.5507C94.4228 14.8586 95.3019 16.2952 96.8243 16.2952C98.3252 16.2952 99.2257 14.8801 99.2257 13.5507C99.2257 12.2213 98.2608 10.9134 96.8243 10.9134ZM67.5996 10.8491C66.0987 10.8491 65.1981 12.2642 65.1981 13.5936C65.1981 14.9229 66.163 16.2309 67.5996 16.2309C69.0362 16.2309 70.0225 14.9229 70.001 13.5936C70.001 12.2856 69.1219 10.8491 67.5996 10.8491ZM33.2075 10.8491C31.9853 10.8491 30.9776 11.9426 30.9776 13.422C30.9776 14.9229 31.9853 15.9736 33.2075 15.9736C34.4082 15.9736 35.416 14.9015 35.416 13.422C35.416 11.964 34.4297 10.8491 33.2075 10.8491ZM77.3554 10.8276C76.219 10.8276 75.1684 11.5995 74.8682 12.7145H79.8212C79.5853 11.7067 78.5776 10.8276 77.3554 10.8276ZM87.1113 10.8276C85.9749 10.8276 84.9243 11.5995 84.6241 12.7145H89.5771C89.3412 11.7067 88.3334 10.8276 87.1113 10.8276ZM26.625 5.36006C27.3 5.36006 27.8471 5.90724 27.8471 6.58222C27.8471 7.2572 27.3 7.80438 26.625 7.80438C25.95 7.80438 25.4028 7.2572 25.4028 6.58222C25.4028 5.90724 25.95 5.36006 26.625 5.36006Z" fill="var(--fill-0, black)"/>
</g>
</svg>
