<svg preserveAspectRatio="xMidYMid meet" overflow="visible" style="display: block;" viewBox="0 0 98 21" fill="none" xmlns="http://www.w3.org/2000/svg">
<g id="Vector">
<path d="M91.0415 11.7135C91.0415 11.5056 91.0864 11.2946 91.1771 11.0795C91.2672 10.8649 91.399 10.6674 91.5728 10.4873C91.7463 10.3073 91.9652 10.1581 92.2291 10.0403C92.4929 9.92268 92.7985 9.86369 93.1457 9.86369C93.4928 9.86369 93.7917 9.92268 94.0416 10.0403C94.2918 10.1581 94.5001 10.3073 94.6667 10.4873C94.8334 10.6674 94.9584 10.8649 95.0415 11.0795C95.1252 11.2946 95.1666 11.5056 95.1666 11.7135H91.0415ZM96.5627 14.6652C96.3402 14.8315 95.9859 15.0288 95.5002 15.2576C95.0136 15.486 94.3818 15.6004 93.604 15.6004C92.8124 15.6004 92.1907 15.4029 91.7396 15.0079C91.2881 14.6131 91.0552 14.1526 91.0415 13.6259H98V13.127C98 12.3094 97.8961 11.5576 97.6877 10.8717C97.4793 10.1857 97.1699 9.59694 96.7606 9.10499C96.3508 8.6132 95.8471 8.22863 95.2501 7.95145C94.6528 7.67443 93.9583 7.53576 93.1666 7.53576C92.3751 7.53576 91.6666 7.67801 91.0415 7.96171C90.4166 8.2459 89.8887 8.62363 89.4581 9.09456C89.0274 9.56582 88.6977 10.1166 88.4687 10.7471C88.2393 11.3777 88.1247 12.0324 88.1247 12.7111C88.1247 13.4876 88.246 14.1974 88.4894 14.8416C88.7323 15.486 89.0864 16.037 89.5521 16.4941C90.0171 16.9515 90.5832 17.3085 91.2499 17.5647C91.9165 17.821 92.6667 17.9492 93.5 17.9492C94.1249 17.9492 94.6804 17.8901 95.1666 17.7724C95.6527 17.6546 96.073 17.5197 96.4273 17.3672C96.7814 17.215 97.0695 17.0589 97.2916 16.8995C97.5139 16.7404 97.6805 16.6261 97.7917 16.5566L96.5627 14.6652ZM63.3565 15.0185C63.1616 15.157 62.9534 15.2783 62.7314 15.3821C62.5091 15.486 62.2451 15.5382 61.9399 15.5382C61.5368 15.5382 61.2416 15.4099 61.0541 15.1535C60.8666 14.8973 60.773 14.5334 60.773 14.0622V10.217H63.2941V7.86818H60.773V5.25589H57.7729V7.86818H56.2266V10.217H57.7729V13.896C57.7729 14.506 57.8353 15.0599 57.9604 15.559C58.0854 16.0577 58.2938 16.4838 58.5855 16.8372C58.8769 17.1905 59.2589 17.4679 59.7313 17.6686C60.2033 17.8694 60.7866 17.9699 61.4812 17.9699C62.5922 17.9699 63.6201 17.5958 64.5648 16.8475L63.3565 15.0185ZM89.3293 4.39697C88.8845 4.02283 88.3917 3.75983 87.85 3.6073C87.3083 3.45478 86.7734 3.37852 86.2457 3.37852C85.7457 3.37852 85.2561 3.45836 84.7768 3.61757C84.2978 3.7771 83.8707 4.01957 83.4957 4.34515C83.1206 4.67089 82.8186 5.083 82.5895 5.5818C82.3602 6.08043 82.2455 6.67667 82.2455 7.36938V7.86818H80.6621V10.217H82.2455V17.6166H85.2249V10.217H87.5375V7.86818H85.2249V7.32767C85.2249 6.84288 85.3497 6.46891 85.5999 6.20558C85.8499 5.94241 86.1833 5.81058 86.5998 5.81058C86.8634 5.81058 87.1207 5.85213 87.3709 5.93508C87.6206 6.01834 87.85 6.13632 88.0584 6.28852L89.3293 4.39697ZM76.1438 17.6166H79.1438V7.86818H76.1438V17.6166ZM65.6876 17.6166H74.8287V15.0497H68.8337V3.75282H65.6876V17.6166ZM48.5498 11.7135C48.5498 11.5056 48.5947 11.2946 48.6854 11.0795C48.7757 10.8649 48.9073 10.6674 49.0813 10.4873C49.2546 10.3073 49.4734 10.1581 49.7376 10.0403C50.0013 9.92268 50.3068 9.86369 50.654 9.86369C51.0013 9.86369 51.3 9.92268 51.5501 10.0403C51.8001 10.1581 52.0084 10.3073 52.1751 10.4873C52.3417 10.6674 52.4669 10.8649 52.55 11.0795C52.6336 11.2946 52.6751 11.5056 52.6751 11.7135H48.5498ZM54.071 14.6652C53.8487 14.8315 53.4944 15.0288 53.0085 15.2576C52.5219 15.486 51.8901 15.6004 51.1125 15.6004C50.3208 15.6004 49.699 15.4029 49.248 15.0079C48.7964 14.6131 48.5637 14.1526 48.5498 13.6259H55.5085V13.127C55.5085 12.3094 55.4044 11.5576 55.196 10.8717C54.9876 10.1857 54.6782 9.59694 54.2689 9.10499C53.8591 8.6132 53.3556 8.22863 52.7584 7.95145C52.1611 7.67443 51.4668 7.53576 50.6751 7.53576C49.8834 7.53576 49.175 7.67801 48.5498 7.96171C47.9249 8.2459 47.397 8.62363 46.9666 9.09456C46.5357 9.56582 46.206 10.1166 45.977 10.7471C45.7478 11.3777 45.6331 12.0324 45.6331 12.7111C45.6331 13.4876 45.7545 14.1974 45.9977 14.8416C46.2406 15.486 46.5949 16.037 47.0604 16.4941C47.5254 16.9515 48.0916 17.3085 48.7582 17.5647C49.4248 17.821 50.175 17.9492 51.0083 17.9492C51.6334 17.9492 52.1887 17.8901 52.6751 17.7724C53.161 17.6546 53.5815 17.5197 53.9356 17.3672C54.2898 17.215 54.5778 17.0589 54.8001 16.8995C55.0222 16.7404 55.189 16.6261 55.3002 16.5566L54.071 14.6652ZM29.9236 17.6166H32.9235L33.2778 8.61662L36.3197 13.9585H37.9445L40.8199 8.55421L41.2156 17.6166H44.3614L43.7158 3.75282H40.7155L37.1739 10.2585L33.5488 3.75282H30.5695L29.9236 17.6166ZM77.6437 6.75342C76.717 6.75342 75.9526 5.99048 75.9526 5.06589C75.9526 4.1413 76.717 3.37852 77.6437 3.37852C78.5937 3.37852 79.3352 4.11832 79.3352 5.06589C79.3352 5.99048 78.5705 6.75342 77.6437 6.75342Z" fill="black"/>
<path d="M11.4288 6.80508C13.7887 9.92203 15.1892 13.805 15.1892 18.0154C15.1892 19.0315 15.1064 20.0282 14.9496 21H21.782C22.3762 21 22.8579 20.5183 22.8579 19.9242V1.07812C22.8579 0.376117 22.1948 -0.143375 21.5158 0.0355469C17.4357 1.10989 13.9043 3.53544 11.4288 6.80508Z" fill="#A4CE4E"/>
<path d="M7.90833 21C7.75137 20.0282 7.66856 19.0315 7.66856 18.0154C7.66856 13.805 9.0693 9.92203 11.4288 6.80508C8.9535 3.53544 5.42223 1.10989 1.34208 0.0355469C0.663102 -0.143375 0 0.376117 0 1.07812V19.9242C0 20.5183 0.481704 21 1.07589 21H7.90833Z" fill="#0090DA"/>
<path d="M11.4288 6.80508C9.0693 9.92203 7.66856 13.805 7.66856 18.0154C7.66856 19.0315 7.75137 20.0282 7.90833 21H14.9496C15.1064 20.0282 15.1892 19.0315 15.1892 18.0154C15.1892 13.805 13.7887 9.92203 11.4288 6.80508Z" fill="var(--fill-0, #0061A0)"/>
</g>
</svg>
