<svg preserveAspectRatio="xMidYMid meet" overflow="visible" style="display: block;" viewBox="0 0 80.132 16.8" fill="none" xmlns="http://www.w3.org/2000/svg">
<path id="Vector" d="M14.1983 7.6013V13.1764H12.1167V8.38155C12.1167 6.56008 11.485 5.89142 10.1837 5.89142C8.88238 5.89142 8.13903 6.8395 8.13903 8.54849V13.1755H6.05748V8.38067C6.05748 6.5592 5.44418 5.89054 4.16221 5.89054C2.75021 5.89054 2.08067 6.83862 2.08067 8.54761V13.1746H0V4.10686H2.08155V5.44506H2.11845C2.8618 4.44163 3.86523 3.97682 4.98025 3.97682C6.35535 3.97682 7.30342 4.59013 7.78669 5.68669C8.67853 4.55322 9.77509 3.97682 11.0017 3.97682C13.0832 3.97682 14.1983 5.35192 14.1983 7.60042V7.6013ZM15.8844 13.1764H17.966V4.10686H15.8844V13.1764ZM16.9248 0C16.1445 0 15.5312 0.631757 15.5312 1.3751C15.5312 2.11845 16.1445 2.76866 16.9248 2.76866C17.705 2.76866 18.3376 2.1369 18.3376 1.3751C18.3376 0.613305 17.7059 0 16.9248 0ZM24.9566 3.97682C23.7669 3.97682 22.6896 4.42318 21.9278 5.44506H21.8909V4.10686H19.8094V13.1764H21.8909V8.54937C21.8909 6.8395 22.6158 5.8923 24.1394 5.8923C25.533 5.8923 26.2025 6.56096 26.2025 8.38243V13.1773H28.2841V7.60218C28.2841 5.35368 27.1321 3.97858 24.9575 3.97858L24.9566 3.97682ZM36.6331 0.185397H38.6962V13.1755H36.7078V11.8742H36.6709C36.0207 12.8408 35.0357 13.324 33.7344 13.324C31.2258 13.324 29.3297 11.4841 29.3297 8.67766C29.3297 5.87121 31.2249 3.97594 33.7159 3.97594C34.9057 3.97594 35.9275 4.36607 36.5962 5.221H36.6331V0.185397ZM36.7078 8.64163C36.7078 6.8764 35.7228 5.85364 34.0692 5.85364C32.6194 5.85364 31.449 6.93176 31.449 8.64163C31.449 10.3515 32.5271 11.4296 34.0507 11.4296C35.5743 11.4296 36.7087 10.5 36.7087 8.64163H36.7078ZM49.7902 8.67853C49.7902 11.485 47.8949 13.3249 45.3854 13.3249C44.085 13.3249 43.1 12.8416 42.4489 11.8751H42.412V13.1764H40.4236V0.185397H42.4867V5.22188H42.5236C43.1923 4.36695 44.2151 3.97682 45.4039 3.97682C47.894 3.97682 49.7902 5.94678 49.7902 8.67853ZM47.6717 8.64163C47.6717 6.93176 46.5005 5.85364 45.0515 5.85364C43.3979 5.85364 42.412 6.87552 42.412 8.64163C42.412 10.5 43.4902 11.4296 45.07 11.4296C46.6498 11.4296 47.6717 10.2777 47.6717 8.64163ZM60.117 8.6636C60.1153 11.412 58.1462 13.3249 55.3591 13.3249C52.572 13.3249 50.6012 11.318 50.6012 8.66008C50.6012 6.00213 52.4841 3.99088 55.3292 3.97682C57.9599 3.96452 60.1179 6.03289 60.1162 8.6636H60.117ZM57.9986 8.66008C57.9986 6.93176 56.8467 5.76138 55.36 5.76138C53.7802 5.76138 52.7214 7.02489 52.7214 8.66008C52.7214 10.2953 53.7995 11.5219 55.36 11.5219C56.8282 11.5219 57.9986 10.3515 57.9986 8.66008ZM68.2341 0.185397H70.2972V13.1755H68.3088V11.8742H68.2719C67.6217 12.8408 66.6367 13.324 65.3354 13.324C62.8268 13.324 60.9307 11.4841 60.9307 8.67766C60.9307 5.87121 62.826 3.97594 65.317 3.97594C66.5067 3.97594 67.5285 4.36607 68.1972 5.221H68.2341V0.185397ZM68.3088 8.64163C68.3088 6.8764 67.3238 5.85364 65.6702 5.85364C64.2204 5.85364 63.05 6.93176 63.05 8.64163C63.05 10.3515 64.1281 11.4296 65.6517 11.4296C67.1753 11.4296 68.3097 10.5 68.3097 8.64163H68.3088ZM78.0514 4.10686V8.4369C78.0514 10.1468 77.3449 11.094 75.8582 11.094C74.5016 11.094 73.8514 10.4253 73.8514 8.60385V4.10686H71.7698V9.42188C71.7698 11.6704 72.9033 13.0455 75.0402 13.0455C76.2106 13.0455 77.3449 12.5622 78.0136 11.6141H78.0505V12.3575C78.0505 13.9558 77.1402 14.9223 75.3557 14.9223C74.0552 14.9223 73.2557 14.5506 72.2707 14.0305L71.769 15.8519C72.7908 16.4652 74.1106 16.8 75.4672 16.8C78.8492 16.8 80.132 14.7369 80.132 11.8936V4.10686H78.0505H78.0514Z" fill="var(--fill-0, #2D2D2D)"/>
</svg>
