<svg preserveAspectRatio="xMidYMid meet" overflow="visible" style="display: block;" viewBox="0 0 23.6103 15.4" fill="none" xmlns="http://www.w3.org/2000/svg">
<path id="Vector" d="M8.80282 4.59343V3.20512C8.94186 3.19655 9.0809 3.18798 9.21994 3.18798C13.0782 3.068 15.607 6.46166 15.607 6.46166C15.607 6.46166 12.8784 10.1981 9.94988 10.1981C9.55884 10.1981 9.17649 10.1381 8.81151 10.0181V5.80178C10.3149 5.98175 10.619 6.63306 11.5141 8.11564L13.5214 6.45309C13.5214 6.45309 12.0528 4.55915 9.58491 4.55915C9.32421 4.55058 9.06352 4.56772 8.80282 4.59343ZM8.80282 0V2.0739L9.21994 2.04819C14.5816 1.86822 18.0836 6.38453 18.0836 6.38453C18.0836 6.38453 14.0689 11.2008 9.88905 11.2008C9.52408 11.2008 9.1678 11.1665 8.81151 11.1065V12.392C9.10697 12.4263 9.41111 12.452 9.70657 12.452C13.5996 12.452 16.4151 10.4895 19.1437 8.17563C19.5956 8.53556 21.4466 9.40111 21.8289 9.77819C19.2393 11.9206 13.1999 13.6432 9.77609 13.6432C9.44587 13.6432 9.13304 13.626 8.8202 13.5918V15.4H23.6103V0L8.80282 0ZM8.80282 10.0181V11.1151C5.20522 10.4809 4.20589 6.78731 4.20589 6.78731C4.20589 6.78731 5.93517 4.90195 8.80282 4.59343V5.79321H8.79413C7.29079 5.61324 6.10897 7.00156 6.10897 7.00156C6.10897 7.00156 6.77809 9.34112 8.80282 10.0181ZM2.41578 6.63306C2.41578 6.63306 4.54479 3.53077 8.81151 3.20512V2.0739C4.08423 2.45097 0 6.3931 0 6.3931C0 6.3931 2.3115 12.9919 8.80282 13.5918V12.392C4.04078 11.8092 2.41578 6.63306 2.41578 6.63306Z" fill="var(--fill-0, #76B900)"/>
</svg>
