<svg preserveAspectRatio="xMidYMid meet" overflow="visible" style="display: block;" viewBox="0 0 54.7635 10.1295" fill="none" xmlns="http://www.w3.org/2000/svg">
<g id="Union">
<path d="M22.7674 10.1295V0.0171397H25.6611V10.1295H22.7674Z" fill="var(--fill-0, black)"/>
<path d="M0 10.121V0H5.19653C7.71659 0 10.2975 0.5399 10.2975 4.53344V10.121H7.46458V5.50184C7.46458 4.08781 7.2821 3.30796 6.82154 2.82805C6.46525 2.45097 5.94386 2.27101 5.19653 2.27101L2.91979 2.26244V10.121H0Z" fill="var(--fill-0, black)"/>
<path fill-rule="evenodd" clip-rule="evenodd" d="M27.4339 10.1295V0.0171397H31.492C33.8035 0.0171397 35.3503 0.291375 36.4105 1.7054C37.0101 2.49382 37.349 3.76216 37.349 5.18475C37.349 6.73589 36.9493 8.15849 36.3236 8.80122C35.4459 9.7182 34.6291 10.1295 32.1264 10.1295H27.4339ZM31.5442 2.21102H30.3015V7.96138H31.5442C33.3517 7.96138 34.5161 7.15581 34.5161 5.08191C34.5161 3.00801 33.3517 2.21102 31.5442 2.21102Z" fill="var(--fill-0, black)"/>
<path d="M16.1805 8.02994L18.5963 0.0171397H21.5508L18.2139 10.1295H14.0428L10.7407 0.0171397H13.869L16.1805 8.02994Z" fill="var(--fill-0, black)"/>
<path d="M41.5983 10.1295H38.7046V0.0171397H41.5983V10.1295Z" fill="var(--fill-0, black)"/>
<path fill-rule="evenodd" clip-rule="evenodd" d="M42.7801 10.121L46.8209 0.0171397H50.6879L54.7635 10.1124H51.6612L51.0529 8.32988H46.2735L45.6304 10.121H42.7801ZM50.4533 6.5902L48.6979 1.85966L46.8905 6.5902H50.4533Z" fill="var(--fill-0, black)"/>
</g>
</svg>
