<svg preserveAspectRatio="xMidYMid meet" overflow="visible" style="display: block;" viewBox="0 0 67.6793 18.2003" fill="none" xmlns="http://www.w3.org/2000/svg">
<g id="Group 48096635">
<path id="Vector" d="M7.20006 0C3.24003 0 0 3.24003 0 7.20006C0 11.1601 3.24003 14.4001 7.20006 14.4001C11.1601 14.4001 14.4001 11.1801 14.4001 7.20006C14.4001 3.21998 11.1801 0 7.20006 0ZM7.20006 11.8201C4.74006 11.8201 2.75998 9.80009 2.75998 7.20006C2.75998 4.60003 4.74006 2.57998 7.20006 2.57998C9.66007 2.57998 11.6401 4.60003 11.6401 7.20006C11.6401 9.80009 9.66007 11.8201 7.20006 11.8201Z" fill="var(--fill-0, black)"/>
<path id="Vector_2" d="M21.6799 4.00018C20.3799 4.00018 19.1199 4.5202 18.4599 5.40022V4.20017H15.8598V18.2003H18.4599V13.1403C19.1199 13.9603 20.3399 14.4003 21.6799 14.4003C24.4799 14.4003 26.68 12.2003 26.68 9.20024C26.68 6.20024 24.4799 4.00018 21.6799 4.00018ZM21.2399 12.1403C19.7599 12.1403 18.4399 10.9803 18.4399 9.20024C18.4399 7.42021 19.7599 6.2602 21.2399 6.2602C22.7199 6.2602 24.0399 7.42021 24.0399 9.20024C24.0399 10.9803 22.7199 12.1403 21.2399 12.1403Z" fill="var(--fill-0, black)"/>
<path id="Vector_3" d="M32.8 4.00018C29.96 4.00018 27.72 6.22022 27.72 9.20024C27.72 12.1803 29.6801 14.4003 32.88 14.4003C35.5001 14.4003 37.1801 12.8203 37.7001 11.0402H35.1601C34.8401 11.7803 33.9401 12.3002 32.8601 12.3002C31.52 12.3002 30.5001 11.3603 30.26 10.0202H37.8201V9.00025C37.8201 6.28018 35.9201 4.00018 32.8 4.00018ZM30.28 8.18025C30.5601 6.92024 31.6001 6.10018 32.8601 6.10018C34.2001 6.10018 35.2201 6.9802 35.3401 8.18025H30.28Z" fill="var(--fill-0, black)"/>
<path id="Vector_4" d="M44.7403 4.00018C43.5803 4.00018 42.3603 4.5202 41.8003 5.38017V4.20017H39.2002V14.2003H41.8003V8.82025C41.8003 7.2602 42.6402 6.24021 44.0003 6.24021C45.2603 6.24021 45.9401 7.20024 45.9401 8.54026V14.2003H48.5402V8.12023C48.5402 5.64018 47.0201 4.00018 44.7403 4.00018Z" fill="var(--fill-0, black)"/>
<path id="Vector_5" d="M55.1996 0.200343L49.5395 14.2005H52.3196L53.5194 11.1405H59.9597L61.1595 14.2005H63.9793L58.3595 0.200343H55.1996ZM54.4194 8.82044L56.7395 2.96039L59.0392 8.82044H54.4194Z" fill="var(--fill-0, black)"/>
<path id="Vector_6" d="M67.6793 0.200343H65.0395V14.2005H67.6793V0.200343Z" fill="var(--fill-0, black)"/>
</g>
</svg>
