<svg preserveAspectRatio="xMidYMid meet" overflow="visible" style="display: block;" viewBox="0 0 17.5093 22.4" fill="none" xmlns="http://www.w3.org/2000/svg">
<path id="Vector (Stroke)" fill-rule="evenodd" clip-rule="evenodd" d="M8.43049 6.01885V0H9.05271V6.04558L14.9744 0.118275V6.47111H17.5093V15.5369H14.9744V21.9252L9.05271 15.9979V22.4H8.43049V16.0252L2.53556 21.9251V15.5369H0V6.47111H2.53493V0.11833L8.43049 6.01885ZM8.00278 6.47111L3.15716 1.6214V6.47111H8.00278ZM0.622222 7.09333V14.9147H2.53501L2.53559 12.567L8.00284 7.09458L0.622222 7.09333ZM3.15778 12.8246V20.4221L8.43049 15.1449V7.54746L3.15778 12.8246ZM9.0664 7.53438V15.1312L14.3522 20.422V15.5369H14.3515L14.3521 12.8246L9.0664 7.53438ZM14.9744 14.9147V12.567L9.50712 7.09458L16.8871 7.09333V14.9147H14.9744ZM14.3522 6.47111V1.62146L9.50712 6.47111H14.3522Z" fill="var(--fill-0, #427E8C)"/>
</svg>
