<svg preserveAspectRatio="xMidYMid meet" overflow="visible" style="display: block;" viewBox="0 0 68.5907 15.2133" fill="none" xmlns="http://www.w3.org/2000/svg">
<path id="Vector" d="M9.8784 5.24533C10.2474 4.55529 10.7632 4.02391 11.4284 3.64996C12.0923 3.27724 12.8713 3.09058 13.7648 3.09058C14.6583 3.09058 15.3981 3.27413 16.0172 3.64187C16.637 4.0096 17.1005 4.4968 17.4073 5.10347C17.714 5.71076 17.8677 6.37591 17.8677 7.09893V8.10071H10.9169C10.9729 8.96933 11.266 9.66 11.7961 10.1721C12.3262 10.6848 13.038 10.9405 13.9322 10.9405C14.6577 10.9405 15.214 10.7931 15.5985 10.4981C15.9843 10.2032 16.2655 9.7944 16.4447 9.27049H18.0364C17.8242 10.0831 17.3917 10.7881 16.7384 11.3836C16.0857 11.9796 15.1499 12.2771 13.9328 12.2771C13.0169 12.2771 12.2099 12.0904 11.5117 11.7177C10.8142 11.345 10.2748 10.813 9.8952 10.1223C9.51564 9.43164 9.32587 8.61902 9.32587 7.6832C9.32587 6.74738 9.51004 5.93538 9.87902 5.24471L9.8784 5.24533ZM16.1933 6.84818C16.1933 6.09093 15.998 5.49858 15.6072 5.06924C15.2164 4.64053 14.6023 4.42649 13.7642 4.42649C12.9827 4.42649 12.343 4.63493 11.8465 5.05244C11.3493 5.46996 11.0451 6.06916 10.9337 6.84818H16.1933ZM19.9559 3.34071V4.72702C19.9559 4.80542 19.9951 4.844 20.0735 4.844C20.1183 4.844 20.1513 4.8328 20.1743 4.8104C20.1973 4.788 20.2191 4.74382 20.2409 4.67724C20.5308 3.76444 21.2514 3.30773 22.4019 3.30773H23.1386V4.8104H22.1835C21.4349 4.8104 20.8768 4.98836 20.5078 5.34489C20.1388 5.70142 19.9547 6.28569 19.9547 7.09893V12.0263H18.447V3.34009H19.9559V3.34071ZM31.9909 10.197C31.5946 10.8926 31.0806 11.4134 30.4497 11.7581C29.8188 12.1028 29.1399 12.2758 28.4144 12.2758C26.9852 12.2758 25.9796 11.7084 25.3991 10.5722C25.3543 10.4838 25.2983 10.439 25.2317 10.439C25.1652 10.439 25.1309 10.4726 25.1309 10.5392V15.199H23.6233V3.34133H25.1309V4.82782C25.1309 4.8944 25.1645 4.928 25.2317 4.928C25.2989 4.928 25.3543 4.8832 25.3991 4.79484C25.9796 3.65867 26.9852 3.0912 28.4144 3.0912C29.1399 3.0912 29.8188 3.26418 30.4497 3.60889C31.0806 3.9536 31.594 4.4744 31.9909 5.17067C32.3873 5.86631 32.5858 6.70507 32.5858 7.68382C32.5858 8.66258 32.3873 9.50071 31.9909 10.197ZM30.2487 5.2864C29.6956 4.71271 28.9669 4.42587 28.0628 4.42587C27.1588 4.42587 26.4295 4.71271 25.877 5.2864C25.3238 5.86009 25.121 6.65902 25.121 7.6832C25.121 8.70738 25.3238 9.50693 25.877 10.08C26.4301 10.6537 27.1588 10.9405 28.0628 10.9405C28.9669 10.9405 29.6962 10.6543 30.2487 10.08C30.8019 9.50631 31.0781 8.70738 31.0781 7.6832C31.0781 6.65902 30.8019 5.86009 30.2487 5.2864ZM34.7735 0V12.0257H33.2659V0.00124435H34.7735V0ZM36.0148 5.24471C36.3832 4.55467 36.8996 4.02329 37.5648 3.64933C38.2287 3.27662 39.0077 3.08996 39.9006 3.08996C40.7935 3.08996 41.5346 3.27351 42.1537 3.64124C42.7734 4.00898 43.237 4.49618 43.5437 5.10284C43.8511 5.71013 44.0042 6.37529 44.0042 7.09831V8.10009H37.0533C37.1093 8.96871 37.4024 9.65938 37.9325 10.1715C38.4627 10.6842 39.1745 10.9399 40.0686 10.9399C40.7941 10.9399 41.3498 10.7924 41.7349 10.4975C42.1207 10.2026 42.402 9.79378 42.5812 9.26987H44.1728C43.9606 10.0825 43.5276 10.7875 42.8748 11.3829C42.2221 11.979 41.2863 12.2764 40.0692 12.2764C39.1533 12.2764 38.3463 12.0898 37.6482 11.7171C36.9507 11.3444 36.4112 10.8124 36.0316 10.1217C35.6521 9.43102 35.4623 8.6184 35.4623 7.68258C35.4623 6.74676 35.6465 5.93475 36.0155 5.24409H36.0148V5.24471ZM42.3298 6.84755C42.3298 6.09031 42.1344 5.49796 41.7436 5.06862C41.3529 4.63991 40.7388 4.42587 39.9006 4.42587C39.1197 4.42587 38.4795 4.63431 37.9829 5.05182C37.4858 5.46933 37.1821 6.06853 37.0701 6.84755H42.3298ZM43.3334 11.6916L46.7836 7.43182L43.9532 3.67422V3.34009H45.6114L47.974 6.58L50.5201 3.34009H52.2113V3.69102L48.962 7.6832L51.9605 11.6916V12.0257H50.3359L47.773 8.53502L45.0265 12.0257H43.3347V11.6916H43.3334ZM54.4003 0.513333V2.39307H52.6394V0.513333H54.4003ZM54.3088 12.0263H52.8005V3.34071H54.3088V12.0263ZM54.7842 3.34071H56.4244V1.0024H57.9326V3.34071H59.6587L60.0824 4.61378H57.9326V8.76898C57.9326 9.33644 57.9183 9.75707 57.8903 10.0302C57.8623 10.3034 57.8486 10.4676 57.8486 10.523C57.8486 10.6014 57.8704 10.6624 57.9152 10.7066C57.96 10.7514 58.021 10.7732 58.1 10.7732C58.1554 10.7732 58.3203 10.7595 58.5941 10.7315C58.8672 10.7035 59.2891 10.6898 59.859 10.6898H60.4452V12.0257H59.2729C58.3122 12.0257 57.5972 11.7924 57.1287 11.3238C56.6602 10.8559 56.425 10.1441 56.425 9.18587V4.61316H54.7854V3.34009H54.7842V3.34071ZM60.1129 3.34071H61.6498L64.1455 10.6276C64.1797 10.7172 64.2326 10.8348 64.4037 10.8348C64.5748 10.8348 64.6277 10.7165 64.6613 10.6276L67.1571 3.34071H68.5907V3.67484L65.4684 13.0449C65.2002 13.8469 64.8237 14.4063 64.3384 14.7236C63.8524 15.041 63.2881 15.1996 62.3492 15.1996H60.7413V13.8637H61.9646C62.3554 13.8637 62.6733 13.8774 62.9191 13.9054C63.1643 13.9334 63.3211 13.9471 63.3883 13.9471C63.578 13.9471 63.7062 13.8637 63.774 13.697L64.2432 12.4276C64.2992 12.2945 64.3042 12.1943 64.26 12.1265C64.2376 12.0817 64.2102 12.0537 64.1766 12.0431C64.143 12.0319 64.0926 12.0263 64.026 12.0263H63.0044L60.1141 3.34133H60.1129V3.34071ZM8.36765 10.2113C7.97129 10.9069 7.45733 11.4277 6.8264 11.7724C6.19547 12.1172 5.51662 12.2901 4.79111 12.2901C3.36187 12.2901 2.35636 11.7227 1.77582 10.5865C1.73102 10.4981 1.67502 10.4533 1.60844 10.4533C1.54187 10.4533 1.50764 10.4869 1.50764 10.5535V15.2133H0V3.35564H1.50764V4.84213C1.50764 4.90871 1.54124 4.94231 1.60844 4.94231C1.67564 4.94231 1.73102 4.89751 1.77582 4.80916C2.35573 3.67298 3.36187 3.10551 4.79111 3.10551C5.51662 3.10551 6.19547 3.27849 6.8264 3.6232C7.45733 3.96791 7.97067 4.48871 8.36765 5.18436C8.764 5.88 8.96249 6.71875 8.96249 7.69813C8.96249 8.67751 8.764 9.51564 8.36765 10.2113ZM6.62542 5.30071C6.07227 4.72702 5.34365 4.44018 4.43956 4.44018C3.53547 4.44018 2.80622 4.72702 2.25369 5.30071C1.70053 5.8744 1.49769 6.67333 1.49769 7.69751C1.49769 8.72169 1.70053 9.52124 2.25369 10.0943C2.80685 10.668 3.53547 10.9548 4.43956 10.9548C5.34365 10.9548 6.07289 10.6686 6.62542 10.0943C7.17858 9.52062 7.45484 8.72169 7.45484 7.69751C7.45484 6.67333 7.17858 5.8744 6.62542 5.30071Z" fill="var(--fill-0, #1C333A)"/>
</svg>
