<svg preserveAspectRatio="xMidYMid meet" overflow="visible" style="display: block;" viewBox="0 0 79.4434 20.999" fill="none" xmlns="http://www.w3.org/2000/svg">
<path id="ramp" d="M47.6416 4.27539C48.7458 4.3557 49.8703 4.91818 50.6533 5.70117C51.5165 6.56444 52.0784 7.68863 52.3193 8.87305C52.5602 10.0575 52.5605 11.262 52.2393 12.3662C51.9983 13.4704 51.4365 14.5947 50.5732 15.458C49.71 16.261 48.5856 16.7224 47.4814 16.8027C46.4575 16.883 45.3328 16.7228 44.5498 16C43.9075 15.5182 43.446 14.7355 43.2051 13.9326V20.999H40.4346V4.49609H43.2051V6.88477C43.5263 6.18221 44.0082 5.3997 44.791 4.91797C45.594 4.35585 46.698 4.19511 47.6416 4.27539ZM10.2188 4.99902C11.2427 4.27626 12.6084 4.19606 13.793 4.27637C14.7365 4.3567 15.7806 4.5974 16.5635 5.21973C17.2862 5.78188 17.7476 6.72602 17.9082 7.60938C18.0687 8.17136 18.0693 8.7132 18.0693 9.35547V16.5029H15.459V14.5156C15.2181 14.9973 14.8969 15.5392 14.5156 15.8604C13.7929 16.4224 12.9296 16.7236 12.0664 16.7236C10.9622 16.8039 9.75686 16.5634 8.89355 15.9209C8.17096 15.4391 7.70946 14.5756 7.54883 13.6924C7.46853 12.9697 7.54877 12.1866 7.9502 11.4639C8.27142 10.9017 8.75382 10.5204 9.2959 10.1992C9.85803 9.87803 10.5607 9.71724 11.2031 9.55664C12.3072 9.31578 13.4313 9.3153 14.4551 8.99414C14.8566 8.91383 15.2579 8.67279 15.3984 8.35156C15.6393 7.86983 15.5593 7.32827 15.2383 6.92676C14.9171 6.5253 14.4353 6.3645 13.9736 6.28418C13.2509 6.12357 12.5477 6.20319 11.9053 6.52441C11.2628 6.84565 10.8813 7.46866 10.7207 8.19141C9.99798 7.87021 9.21491 7.6286 8.49219 7.3877C8.69302 6.50449 9.33561 5.56113 10.2188 4.99902ZM24.7344 4.91895C25.5977 4.1962 26.8023 4.11555 27.8262 4.35645C28.6894 4.51705 29.493 5.15947 29.8945 5.94238C30.1354 6.26357 30.2154 6.66546 30.376 7.04688C30.6169 6.18364 31.0991 5.38047 31.8018 4.81836C32.6048 4.25641 33.7089 4.17632 34.6523 4.33691C35.5957 4.49751 36.4789 4.97903 37.041 5.76172C37.5228 6.40407 37.7644 7.18731 37.8447 7.99023C37.925 8.39177 37.8447 8.79409 37.8447 9.25586V16.543H35.2344V9.47656C35.2344 8.67364 35.1545 7.89044 34.6729 7.24805C34.3517 6.76624 33.8092 6.52543 33.2471 6.52539C32.5243 6.44508 31.8217 6.6859 31.3398 7.24805C30.6974 8.05111 30.6164 9.07496 30.5361 10.0186V16.5234H27.9268V9.61719C27.9268 8.89442 27.8464 8.19129 27.6055 7.54883C27.3645 7.06702 26.9627 6.68577 26.501 6.60547C25.7783 6.44491 24.9957 6.52535 24.4336 6.92676C23.9518 7.32829 23.7109 7.87047 23.5703 8.43262C23.4097 8.99469 23.3291 9.53656 23.3291 10.0986V16.5234H20.7188V4.61816H23.3291V7.30762C23.5299 6.34411 23.9314 5.48101 24.7344 4.91895ZM5.92188 4.29688C6.56422 4.21658 7.267 4.29689 7.8291 4.69824C7.42765 5.50116 7.02689 6.36461 6.64551 7.14746C5.84244 6.82623 4.898 6.82675 4.19531 7.30859C3.71372 7.62979 3.33265 8.11147 3.0918 8.65332C2.85092 9.29567 2.68951 9.99826 2.68945 10.6406V16.5029H0V4.59766H2.60938V7.68945C2.99082 6.82618 3.39304 5.88289 4.0957 5.16016C4.57744 4.67846 5.19934 4.29702 5.92188 4.29688ZM79.4434 16.4229C78.8814 16.5031 78.2592 16.4229 77.6973 16.4229H68.9639C69.3052 16.182 69.7866 15.9407 70.168 15.6396C70.971 15.0775 71.7538 14.4551 72.4766 13.7324H76.7529L79.4434 16.4229ZM74.0635 0C74.2238 0.0803791 74.3044 0.241054 74.4648 0.321289L76.7734 2.62988C76.6931 4.93872 75.9104 7.06708 74.7861 9.05469C72.8788 12.3071 69.7868 14.7566 66.1328 15.8809C65.109 16.202 63.9848 16.4423 62.9609 16.4424C62.1579 15.6393 61.4544 14.9369 60.6514 14.1338C60.4909 13.9734 60.3303 13.893 60.25 13.6523C63.5827 13.4114 66.8351 11.9855 69.2041 9.67676C70.8705 8.09069 72.2965 6.10275 73.0996 3.97461C73.6616 2.79022 73.9832 1.42522 74.0635 0ZM15.459 9.45605C15.3586 9.75718 15.1175 10.0784 14.8164 10.3193C14.2543 10.7208 13.5518 10.8814 12.8291 11.042C12.1866 11.1223 11.6442 11.2833 11.082 11.6045C10.6806 11.8454 10.279 12.2472 10.2188 12.7891C10.1385 13.3511 10.2189 13.8933 10.54 14.375C10.8612 14.7765 11.2629 14.9373 11.7246 15.0176C12.5277 15.1782 13.4718 15.0172 14.1143 14.4551C14.7565 13.9733 15.1382 13.2707 15.2988 12.4678C15.5397 11.5242 15.459 10.48 15.459 9.45605ZM48.3848 7.00586C47.5617 6.504 46.6181 6.34339 45.7549 6.50391C45.4337 6.58421 45.1117 6.66435 44.8105 6.90527C44.088 7.30682 43.5456 8.08967 43.3047 8.89258C42.9835 9.83613 42.9837 10.8804 43.2246 11.9043C43.3852 12.8478 43.9476 13.731 44.7305 14.2129C45.5335 14.6947 46.4775 14.7751 47.3408 14.5342C48.204 14.2932 48.9266 13.6711 49.3281 12.8682C49.8903 11.8442 49.9702 10.6394 49.8096 9.53516C49.6489 8.59171 49.1676 7.62818 48.3848 7.00586Z" fill="var(--fill-0, #010202)"/>
</svg>
