<svg preserveAspectRatio="xMidYMid meet" overflow="visible" style="display: block;" viewBox="0 0 83.1906 23.705" fill="none" xmlns="http://www.w3.org/2000/svg">
<g id="User Logos/Full Color/Shopify">
<path id="Shape" d="M28.7652 13.1591C28.0539 12.7761 27.6846 12.4478 27.6846 11.9964C27.6846 11.4219 28.1907 11.0526 28.9977 11.0526C29.9278 11.0526 30.7485 11.4356 30.7485 11.4356L31.405 9.43861C31.405 9.43861 30.8032 8.97356 29.0387 8.97356C26.5767 8.97356 24.8669 10.3824 24.8669 12.3657C24.8669 13.4874 25.6602 14.3491 26.7271 14.9646C27.5888 15.457 27.8898 15.799 27.8898 16.3187C27.8898 16.8522 27.4657 17.2762 26.6587 17.2762C25.4687 17.2762 24.3471 16.6607 24.3471 16.6607L23.6495 18.6577C23.6495 18.6577 24.6891 19.3553 26.4262 19.3553C28.9566 19.3553 30.7758 18.1106 30.7758 15.8673C30.7895 14.65 29.8731 13.7883 28.7652 13.1591ZM38.8596 8.9462C37.6149 8.9462 36.6301 9.53436 35.8778 10.4371L35.8368 10.4234L36.9173 4.76068H34.0996L31.364 19.1638H34.1817L35.1255 14.2396C35.4948 12.3794 36.4523 11.2305 37.355 11.2305C37.9842 11.2305 38.2304 11.6545 38.2304 12.27C38.2304 12.653 38.1894 13.1317 38.1073 13.5147L37.0404 19.1501H39.8581L40.9661 13.3232C41.0892 12.7077 41.1712 11.9691 41.1712 11.4903C41.1712 9.91735 40.3232 8.9462 38.8596 8.9462ZM47.5453 8.9462C44.1531 8.9462 41.9099 12.0101 41.9099 15.4296C41.9099 17.6182 43.264 19.369 45.7945 19.369C49.1183 19.369 51.3752 16.3871 51.3752 12.8855C51.3615 10.8748 50.1715 8.9462 47.5453 8.9462ZM46.1501 17.2078C45.1926 17.2078 44.7823 16.3871 44.7823 15.3749C44.7823 13.7609 45.6166 11.121 47.1486 11.121C48.1471 11.121 48.4754 11.9828 48.4754 12.8171C48.4754 14.5542 47.641 17.2078 46.1501 17.2078ZM58.5699 8.9462C56.6686 8.9462 55.588 10.6149 55.588 10.6149H55.547L55.7111 9.09666H53.2217C53.0986 10.1225 52.8798 11.6682 52.6472 12.8308L50.6912 23.1441H53.5089L54.2886 18.9723H54.3433C54.3433 18.9723 54.9178 19.3416 55.9984 19.3416C59.3085 19.3416 61.4696 15.9494 61.4696 12.5162C61.4833 10.6423 60.6353 8.9462 58.5699 8.9462ZM55.8753 17.2488C55.1366 17.2488 54.7126 16.8385 54.7126 16.8385L55.1777 14.1986C55.506 12.4478 56.4224 11.2715 57.4072 11.2715C58.2689 11.2715 58.5288 12.0648 58.5288 12.8308C58.5288 14.65 57.4483 17.2488 55.8753 17.2488ZM65.5047 4.91114C64.6019 4.91114 63.8907 5.62241 63.8907 6.55252C63.8907 7.38689 64.4241 7.96137 65.2175 7.96137H65.2585C66.1339 7.96137 66.8999 7.37321 66.9135 6.31999C66.9135 5.4993 66.3664 4.91114 65.5047 4.91114ZM61.5654 19.1638H64.3831L66.298 9.17873H63.453L61.5654 19.1638ZM73.4654 9.15137H71.5094L71.6052 8.68632C71.7693 7.72884 72.3438 6.86712 73.2739 6.86712C73.78 6.86712 74.1766 7.0039 74.1766 7.0039L74.7238 4.80172C74.7238 4.80172 74.2314 4.55551 73.1918 4.55551C72.1933 4.55551 71.1948 4.84275 70.4288 5.4993C69.4714 6.31999 69.02 7.49632 68.7875 8.68632L68.7054 9.15137H67.3923L66.9819 11.2715H68.295L66.8041 19.1638H69.6218L71.1127 11.2715H73.055L73.4654 9.15137ZM80.2498 9.17873C80.2498 9.17873 78.4853 13.6241 77.6919 16.0452H77.6509C77.5962 15.2655 76.9533 9.17873 76.9533 9.17873H73.9988L75.6949 18.3568C75.736 18.5619 75.7086 18.6851 75.6402 18.8218C75.3119 19.451 74.7648 20.0665 74.1083 20.5179C73.5748 20.9009 72.9867 21.1471 72.5079 21.3113L73.2876 23.7049C73.862 23.5818 75.0384 23.1168 76.0506 22.173C77.3363 20.9693 78.5263 19.1091 79.7437 16.5786L83.1906 9.17873H80.2498Z" fill="var(--fill-0, black)"/>
<g id="subtract">
<path id="Shape_2" d="M17.8774 4.45976C17.8637 4.33666 17.7543 4.28195 17.6722 4.26827C17.5901 4.25459 15.9487 4.24091 15.9487 4.24091C15.9487 4.24091 14.5672 2.90045 14.4305 2.76367C14.2937 2.62689 14.0338 2.66792 13.9244 2.69528C13.9244 2.69528 13.6645 2.77735 13.2268 2.91413C13.1584 2.6816 13.049 2.39436 12.8985 2.10712C12.4061 1.16333 11.6948 0.670913 10.8194 0.670913C10.7647 0.670913 10.6963 0.670913 10.6416 0.684591C10.6143 0.657235 10.5869 0.629879 10.5595 0.588844C10.1766 0.1785 9.69782 -0.0129948 9.12333 0.000683402C8.00172 0.0280397 6.89379 0.835051 5.97736 2.28494C5.33448 3.29712 4.85575 4.56919 4.71897 5.55402C3.43322 5.95068 2.53046 6.22425 2.51678 6.23792C1.87391 6.4431 1.84655 6.45677 1.76448 7.07229C1.69609 7.52367 0 20.6684 0 20.6684L14.239 23.1305L20.4078 21.5985C20.4078 21.5985 17.891 4.56919 17.8774 4.45976ZM12.5155 3.13298C12.1872 3.22873 11.8179 3.35183 11.4076 3.47494C11.3939 2.91413 11.3255 2.1208 11.0656 1.43689C11.9274 1.60103 12.3377 2.5585 12.5155 3.13298ZM10.669 3.70746C9.91667 3.93999 9.10966 4.1862 8.28897 4.44609C8.5215 3.57068 8.9592 2.69528 9.49264 2.1208C9.69782 1.90195 9.97138 1.66942 10.2997 1.53264C10.6143 2.17551 10.669 3.09195 10.669 3.70746ZM9.13701 0.752982C9.3969 0.752982 9.61575 0.807695 9.80724 0.930798C9.50632 1.08126 9.2054 1.31379 8.93184 1.61471C8.22057 2.38068 7.67345 3.557 7.4546 4.70597C6.77069 4.91114 6.11414 5.11632 5.49862 5.30781C5.90896 3.50229 7.41356 0.807695 9.13701 0.752982Z" fill="var(--fill-0, #95BF47)"/>
<path id="Path" d="M17.6722 4.26828C17.5902 4.2546 15.9488 4.24092 15.9488 4.24092C15.9488 4.24092 14.5673 2.90046 14.4305 2.76368C14.3758 2.70897 14.3074 2.68161 14.239 2.68161V23.1305L20.4078 21.5985C20.4078 21.5985 17.8911 4.58287 17.8774 4.45977C17.85 4.33667 17.7543 4.28195 17.6722 4.26828Z" fill="var(--fill-0, #5E8E3E)"/>
<path id="Path_2" d="M10.8194 7.44161L10.1081 10.1225C10.1081 10.1225 9.31479 9.75322 8.35732 9.82161C6.96215 9.90368 6.94847 10.7791 6.96215 11.0116C7.04422 12.2153 10.1902 12.4752 10.368 15.2792C10.5048 17.4951 9.19169 18.9997 7.30411 19.1228C5.03353 19.2595 3.78882 17.9328 3.78882 17.9328L4.26755 15.8947C4.26755 15.8947 5.52595 16.8385 6.52445 16.7838C7.181 16.7428 7.41353 16.2093 7.38617 15.8263C7.29043 14.267 4.71893 14.3491 4.5548 11.7913C4.41801 9.63012 5.84054 7.44161 8.97284 7.23644C10.2039 7.12701 10.8194 7.44161 10.8194 7.44161Z" fill="var(--fill-0, white)"/>
</g>
</g>
</svg>
