<svg preserveAspectRatio="xMidYMid meet" overflow="visible" style="display: block;" viewBox="0 0 48.3603 16.7884" fill="none" xmlns="http://www.w3.org/2000/svg">
<g id="User Logos/Full Color/Uber">
<path id="Combined Shape" d="M2.47581 0V10.1862C2.47581 10.8465 2.57796 11.4477 2.78233 11.99C2.98669 12.5324 3.26964 12.9961 3.6312 13.3812C3.99277 13.7663 4.42111 14.0611 4.91624 14.2654C5.41142 14.4698 5.94981 14.572 6.53144 14.572C7.09737 14.572 7.62788 14.4658 8.12306 14.2536C8.61824 14.0414 9.0505 13.7427 9.4199 13.3576C9.78929 12.9725 10.0762 12.5127 10.2806 11.9782C10.4849 11.4438 10.5871 10.8465 10.5871 10.1862V0H13.0629V16.5054H10.6107V14.9728C10.0605 15.5543 9.41202 16.0024 8.66536 16.3168C7.91864 16.6312 7.11308 16.7884 6.24851 16.7884C5.36818 16.7884 4.54685 16.6351 3.78443 16.3286C3.02207 16.022 2.36181 15.5859 1.80381 15.0199C1.24581 14.454 0.805618 13.7742 0.483392 12.9803C0.161113 12.1865 0 11.3023 0 10.3277V0H2.47581ZM17.3305 0V6.01268C17.8807 5.4625 18.5174 5.02633 19.2404 4.70405C19.9635 4.38177 20.7495 4.22066 21.5983 4.22066C22.4787 4.22066 23.3038 4.38569 24.0741 4.71579C24.8444 5.0459 25.5124 5.49391 26.0783 6.05984C26.6443 6.62577 27.0923 7.29381 27.4224 8.06405C27.7525 8.83435 27.9175 9.65176 27.9175 10.5163C27.9175 11.3809 27.7525 12.1943 27.4224 12.9567C27.0923 13.7191 26.6443 14.3833 26.0783 14.9491C25.5124 15.5151 24.8444 15.9631 24.0741 16.2932C23.3038 16.6233 22.4786 16.7883 21.5983 16.7883C20.7495 16.7883 19.9596 16.6272 19.2286 16.3049C18.4977 15.9827 17.8571 15.5465 17.3069 14.9963V16.5054H14.949V0H17.3305ZM34.9675 4.24435C35.832 4.24435 36.6338 4.40155 37.3726 4.7159C38.1114 5.0303 38.748 5.46652 39.2825 6.02457C39.8169 6.58257 40.2335 7.24283 40.5321 8.0052C40.8308 8.76762 40.9802 9.59682 40.9802 10.4929V11.271H31.1948C31.2735 11.7583 31.4307 12.2102 31.6664 12.6267C31.9023 13.0433 32.1969 13.4048 32.5506 13.7114C32.9043 14.0179 33.3052 14.2577 33.7532 14.4305C34.2012 14.6034 34.6767 14.6899 35.1797 14.6899C36.6102 14.6899 37.7656 14.1004 38.6459 12.9214L40.3672 14.1947C39.7698 14.9964 39.031 15.6252 38.1508 16.081C37.2704 16.5369 36.2801 16.7648 35.1798 16.7648C34.2837 16.7648 33.4467 16.6076 32.6686 16.2932C31.8905 15.9789 31.2146 15.5387 30.6408 14.9728C30.067 14.4068 29.6151 13.7427 29.285 12.9803C28.9549 12.218 28.7898 11.3887 28.7898 10.4927C28.7898 9.64393 28.947 8.84223 29.2613 8.08769C29.5757 7.33315 30.008 6.66903 30.5582 6.09527C31.1083 5.52151 31.7607 5.06958 32.5152 4.73948C33.2698 4.40937 34.0872 4.24435 34.9675 4.24435ZM48.3603 4.38569V6.60214H47.3699C46.584 6.60219 45.9395 6.87725 45.4365 7.42742C44.9335 7.9776 44.6819 8.72426 44.6819 9.66746V16.5055H42.3004V4.48007H44.6583V5.96557C44.957 5.47826 45.3461 5.09311 45.8255 4.81017C46.3049 4.52718 46.8748 4.38569 47.535 4.38569H48.3603ZM21.4333 6.34278C20.8674 6.34278 20.333 6.4489 19.8299 6.66115C19.3269 6.87339 18.8868 7.16812 18.5095 7.54534C18.1323 7.92261 17.8336 8.36666 17.6135 8.87755C17.3934 9.38843 17.2834 9.9347 17.2834 10.5163C17.2834 11.098 17.3895 11.6403 17.6017 12.1433C17.8138 12.6463 18.1086 13.0865 18.4859 13.4637C18.8632 13.841 19.3033 14.1397 19.8063 14.3598C20.3094 14.5798 20.8517 14.6899 21.4333 14.6899C21.9992 14.6899 22.5337 14.5798 23.0367 14.3598C23.5397 14.1397 23.9758 13.8411 24.3453 13.4637C24.7147 13.0865 25.0095 12.6463 25.2295 12.1433C25.4496 11.6403 25.5596 11.098 25.5596 10.5163C25.5596 9.9347 25.4496 9.38843 25.2295 8.87755C25.0095 8.36666 24.7147 7.92261 24.3453 7.54534C23.9759 7.16812 23.5397 6.87334 23.0367 6.66115C22.5336 6.44896 21.9992 6.34278 21.4333 6.34278ZM34.9204 6.31925C34.0243 6.31925 33.2423 6.59828 32.5742 7.15628C31.9061 7.71433 31.4621 8.45708 31.242 9.38452H38.5751C38.3708 8.45708 37.9346 7.71433 37.2665 7.15628C36.5984 6.59828 35.8163 6.31925 34.9204 6.31925Z" fill="var(--fill-0, #010202)"/>
</g>
</svg>
