<svg preserveAspectRatio="xMidYMid meet" overflow="visible" style="display: block;" viewBox="0 0 73.5701 14.7" fill="none" xmlns="http://www.w3.org/2000/svg">
<path id="Vector" fill-rule="evenodd" clip-rule="evenodd" d="M16.905 14.7L8.4525 0L0 14.7H16.905ZM25.4303 14.0308L32.4941 0.668186H29.4387L24.5659 10.3726L19.6931 0.668186H16.6377L23.7016 14.0308H25.4303ZM73.5701 0.668186V14.0308H71.0406V0.668186H73.5701ZM59.4901 9.04333C59.4901 8.00195 59.7074 7.08599 60.1419 6.29553C60.5767 5.50507 61.1828 4.89651 61.9602 4.46993C62.7373 4.04332 63.6465 3.83003 64.6874 3.83003C65.6095 3.83003 66.4395 4.03077 67.1773 4.43228C67.9151 4.83378 68.5012 5.42978 68.9359 6.22025C69.3707 7.01071 69.5946 7.97684 69.6079 9.11864V9.70206H62.1578C62.2104 10.5302 62.4541 11.1826 62.8889 11.6594C63.3369 12.1237 63.9362 12.3558 64.6874 12.3558C65.1614 12.3558 65.5962 12.2303 65.9914 11.9794C66.3869 11.7284 66.6832 11.3896 66.8808 10.963L69.4697 11.1513C69.1533 12.0923 68.5605 12.8451 67.691 13.4097C66.8214 13.9744 65.8204 14.2567 64.6874 14.2567C63.6465 14.2567 62.7373 14.0434 61.9602 13.6168C61.1828 13.1902 60.5767 12.5816 60.1419 11.7912C59.7074 11.0007 59.4901 10.0847 59.4901 9.04333ZM66.9995 8.1023C66.9071 7.28673 66.6504 6.69076 66.2286 6.31436C65.8071 5.9254 65.2932 5.73091 64.6874 5.73091C63.9891 5.73091 63.4226 5.93792 62.9878 6.35198C62.553 6.76604 62.2831 7.34949 62.1776 8.1023H66.9995ZM55.2225 6.31436C55.644 6.65311 55.9075 7.12365 56.0129 7.7259L58.6216 7.59416C58.5295 6.82877 58.2592 6.1638 57.8114 5.59917C57.3634 5.03455 56.7838 4.60167 56.0723 4.30054C55.3741 3.98687 54.6034 3.83003 53.7602 3.83003C52.7193 3.83003 51.8104 4.04332 51.033 4.46993C50.2556 4.89651 49.6498 5.50507 49.215 6.29553C48.7803 7.08599 48.5629 8.00195 48.5629 9.04333C48.5629 10.0847 48.7803 11.0007 49.215 11.7912C49.6498 12.5816 50.2556 13.1902 51.033 13.6168C51.8104 14.0434 52.7193 14.2567 53.7602 14.2567C54.6297 14.2567 55.4201 14.0998 56.1317 13.7861C56.8429 13.4599 57.4227 13.002 57.8705 12.4122C58.3186 11.8225 58.5885 11.1324 58.6807 10.342L56.0525 10.2291C55.9604 10.894 55.7034 11.4085 55.2819 11.7723C54.8601 12.1237 54.353 12.2993 53.7602 12.2993C52.9435 12.2993 52.3111 12.017 51.863 11.4524C51.4152 10.8878 51.1911 10.0847 51.1911 9.04333C51.1911 8.00195 51.4152 7.19893 51.863 6.63431C52.3111 6.06969 52.9435 5.78736 53.7602 5.78736C54.3267 5.78736 54.814 5.96303 55.2225 6.31436ZM42.3906 4.05542H44.7445L44.8124 5.97527C44.9795 5.43182 45.2118 5.00982 45.5095 4.70923C45.9409 4.27335 46.5425 4.05542 47.3139 4.05542H48.2751V6.11028H47.2944C46.7452 6.11028 46.294 6.185 45.9409 6.33443C45.6008 6.48389 45.3393 6.7205 45.1564 7.0443C44.9862 7.36809 44.9014 7.77907 44.9014 8.2772V14.0308H42.3906V4.05542ZM31.5332 6.29553C31.0984 7.08599 30.881 8.00195 30.881 9.04333C30.881 10.0847 31.0984 11.0007 31.5332 11.7912C31.968 12.5816 32.5741 13.1902 33.3512 13.6168C34.1286 14.0434 35.0375 14.2567 36.0783 14.2567C37.2114 14.2567 38.2127 13.9744 39.0822 13.4097C39.9515 12.8451 40.5446 12.0923 40.8606 11.1513L38.272 10.963C38.0741 11.3896 37.7779 11.7284 37.3827 11.9794C36.9875 12.2303 36.5527 12.3558 36.0783 12.3558C35.3275 12.3558 34.7279 12.1237 34.2801 11.6594C33.8453 11.1826 33.6017 10.5302 33.5488 9.70206H40.9989V9.11864C40.9859 7.97684 40.762 7.01071 40.3272 6.22025C39.8924 5.42978 39.3061 4.83378 38.5683 4.43228C37.8305 4.03077 37.0005 3.83003 36.0783 3.83003C35.0375 3.83003 34.1286 4.04332 33.3512 4.46993C32.5741 4.89651 31.968 5.50507 31.5332 6.29553ZM37.6198 6.31436C38.0413 6.69076 38.2983 7.28673 38.3905 8.1023H33.5686C33.674 7.34949 33.944 6.76604 34.3788 6.35198C34.8136 5.93792 35.3801 5.73091 36.0783 5.73091C36.6844 5.73091 37.1981 5.9254 37.6198 6.31436Z" fill="var(--fill-0, black)"/>
</svg>
