<svg preserveAspectRatio="xMidYMid meet" overflow="visible" style="display: block;" viewBox="0 0 64.9102 16.8" fill="none" xmlns="http://www.w3.org/2000/svg">
<path id="Vector" d="M56.4499 11.6419C54.6422 11.6419 53.437 10.2921 53.437 8.41205C53.437 6.53199 54.6663 5.15811 56.4499 5.15811C58.2336 5.15811 59.511 6.53199 59.511 8.41205C59.511 10.2921 58.2577 11.6419 56.4499 11.6419ZM56.4499 16.8C61.2465 16.8 64.9102 13.2327 64.9102 8.41205C64.9102 3.59139 61.2465 0 56.4499 0C51.6534 0 48.0138 3.56729 48.0138 8.41205C48.0138 13.2568 51.6775 16.8 56.4499 16.8ZM38.3725 11.6419C36.5647 11.6419 35.3354 10.2921 35.3354 8.41205C35.3354 6.53199 36.5647 5.15811 38.3725 5.15811C40.1802 5.15811 41.4095 6.53199 41.4095 8.41205C41.4095 10.2921 40.2043 11.6419 38.3725 11.6419ZM38.3725 16.8C43.1449 16.8 46.8086 13.2327 46.8327 8.41205C46.8327 3.56729 43.1449 0 38.3725 0C33.6 0 29.9122 3.56729 29.9122 8.41205C29.9122 13.2568 33.6 16.8 38.3725 16.8ZM8.29154 16.8C10.1716 16.8 11.7142 15.8841 12.8471 13.7148L15.402 8.94232V12.9917C15.402 15.3779 16.9446 16.8 19.3308 16.8C21.2109 16.8 22.5848 15.9805 23.9105 13.7148L29.7917 3.80832C31.0692 1.61492 30.1532 0 27.3331 0C25.8146 0 24.8264 0.482066 23.9346 2.14519L19.8852 9.73773V2.98881C19.8852 0.964132 18.9211 0 17.1616 0C15.7395 0 14.6307 0.602582 13.763 2.28981L9.95466 9.73773V3.06112C9.95466 0.891822 9.06284 0 6.91765 0H2.50674C0.843616 0 0 0.771306 0 2.1934C0 3.61549 0.891822 4.43501 2.50674 4.43501H4.31449V12.9676C4.31449 15.3779 5.92941 16.8 8.29154 16.8Z" fill="var(--fill-0, #873EFF)"/>
</svg>
